<?xml version="1.0" encoding="UTF-8"?>
<svg version="1.1" xmlns="http://www.w3.org/2000/svg" width="263" height="195">
<path d="M0 0 C86.79 0 173.58 0 263 0 C263 64.35 263 128.7 263 195 C176.21 195 89.42 195 0 195 C0 130.65 0 66.3 0 0 Z " fill="#040404" transform="translate(0,0)"/>
<path d="M0 0 C0 0.66 0 1.32 0 2 C1.65 2.66 3.3 3.32 5 4 C5 4.66 5 5.32 5 6 C5.556875 6.061875 6.11375 6.12375 6.6875 6.1875 C9.98041671 7.34447074 11.64219554 9.4653602 14 12 C14.763125 12.721875 15.52625 13.44375 16.3125 14.1875 C18 16 18 16 18 18 C18.66 18 19.32 18 20 18 C24.60855892 23.2808951 26.74699726 28.04242456 27 35 C23.04 35 19.08 35 15 35 C15 34.01 15 33.02 15 32 C14.34 32 13.68 32 13 32 C12.01 29.03 12.01 29.03 11 26 C10.34 26 9.68 26 9 26 C9 25.34 9 24.68 9 24 C8.34 24 7.68 24 7 24 C6.56300781 23.24976562 6.12601563 22.49953125 5.67578125 21.7265625 C1.93209571 15.63543778 -5.57395942 11.87480763 -12 9 C-12 8.34 -12 7.68 -12 7 C-30.50742965 3.50449895 -47.65686999 3.71080382 -64 14 C-66.01194014 15.88619388 -67.37587061 17.73606206 -69 20 C-70.2375 20.86625 -70.2375 20.86625 -71.5 21.75 C-77.16075948 26.84468353 -79.48936536 34.97022302 -82 42 C-82.495 42.99 -82.495 42.99 -83 44 C-83.22858114 46.0374763 -83.41024278 48.08040303 -83.5625 50.125 C-83.706875 52.06375 -83.85125 54.0025 -84 56 C-90.6 56 -97.2 56 -104 56 C-104 56.66 -104 57.32 -104 58 C-107.96 58.99 -111.92 59.98 -116 61 C-116 61.66 -116 62.32 -116 63 C-119.46153846 66 -119.46153846 66 -122 66 C-122.268125 66.57363281 -122.53625 67.14726563 -122.8125 67.73828125 C-124.03441531 70.06554758 -125.45332499 72.06468855 -127 74.1875 C-132.65077105 82.6498742 -133.28297833 92.72260192 -131.53515625 102.63671875 C-129.03421194 112.06335501 -124.15412433 120.47270767 -116 126 C-112.75057506 127.83601109 -112.75057506 127.83601109 -110 129 C-110 129.66 -110 130.32 -110 131 C-104.58568992 131.89704279 -99.33141188 132.18850019 -93.84765625 132.23828125 C-92.55921059 132.25038887 -92.55921059 132.25038887 -91.24473572 132.26274109 C-89.43702161 132.27650158 -87.62928239 132.28725923 -85.8215332 132.29516602 C-83.98388993 132.30671125 -82.14628085 132.32720305 -80.30883789 132.35668945 C-77.63404893 132.39952628 -74.9602463 132.41555239 -72.28515625 132.42578125 C-71.06760399 132.45204338 -71.06760399 132.45204338 -69.82545471 132.47883606 C-62.10110029 132.44977589 -55.49352265 129.49352265 -50 124 C-47.45757461 120.15200481 -45.89787583 116.62069734 -45.625 112 C-45.22096405 107.01360511 -42.47350081 103.46536615 -39 100 C-36.80078125 98.7734375 -36.80078125 98.7734375 -35 98 C-33.35945558 100.88609027 -32.75063624 102.94488762 -32.76953125 106.2578125 C-32.77146484 107.04800781 -32.77339844 107.83820313 -32.77539062 108.65234375 C-32.78763672 109.46832031 -32.79988281 110.28429687 -32.8125 111.125 C-32.8134668 112.36056641 -32.8134668 112.36056641 -32.81445312 113.62109375 C-32.85936202 119.71872404 -32.85936202 119.71872404 -34 122 C-34.66 122 -35.32 122 -36 122 C-36.185625 122.825 -36.37125 123.65 -36.5625 124.5 C-39.42647047 131.4731455 -45.29990844 137.49380802 -52 141 C-54.67256189 141.89869599 -57.22038961 142.46358396 -60 143 C-60 143.66 -60 144.32 -60 145 C-66.4044834 145.10185277 -72.80875607 145.17165458 -79.21386719 145.21972656 C-81.39037888 145.23977764 -83.56683714 145.26702571 -85.74316406 145.30175781 C-88.88099393 145.35056212 -92.01810835 145.37303438 -95.15625 145.390625 C-96.12115356 145.41127014 -97.08605713 145.43191528 -98.0802002 145.45318604 C-103.60253319 145.45499886 -107.49309821 144.78804724 -112.28942871 141.9833374 C-114.72873708 140.58107889 -117.31553872 139.80533838 -120 139 C-120 138.34 -120 137.68 -120 137 C-121.32 136.67 -122.64 136.34 -124 136 C-124 135.34 -124 134.68 -124 134 C-125.10408203 133.6596875 -125.10408203 133.6596875 -126.23046875 133.3125 C-129.58200939 131.72418173 -131.0568561 129.92256686 -133.3125 127 C-134.35857422 125.6696875 -134.35857422 125.6696875 -135.42578125 124.3125 C-137 122 -137 122 -137 120 C-137.66 120 -138.32 120 -139 120 C-139.50833591 118.75336669 -140.00631145 117.50250613 -140.5 116.25 C-140.91765625 115.20585937 -140.91765625 115.20585937 -141.34375 114.140625 C-142 112 -142 112 -142 108 C-142.66 108 -143.32 108 -144 108 C-146.74699879 98.12676887 -146.1121799 85.37577016 -142 76 C-141.63648438 75.16210938 -141.27296875 74.32421875 -140.8984375 73.4609375 C-136.72662019 64.55208892 -131.59235657 57.10896877 -123 52 C-122.34 52 -121.68 52 -121 52 C-121 51.34 -121 50.68 -121 50 C-118.36002853 48.98159539 -115.71476721 47.98544489 -113.0625 47 C-112.32708984 46.71382812 -111.59167969 46.42765625 -110.83398438 46.1328125 C-105.33726311 44.11654793 -100.85048688 43.72112873 -95 44 C-95.0825 43.21625 -95.165 42.4325 -95.25 41.625 C-94.90508489 36.62373094 -93.01353919 32.5484412 -91 28 C-90.34 28 -89.68 28 -89 28 C-88.855625 27.071875 -88.71125 26.14375 -88.5625 25.1875 C-86.89953435 19.20082365 -82.24031858 14.3748063 -78 10 C-77.34 10 -76.68 10 -76 10 C-75.505 8.515 -75.505 8.515 -75 7 C-73.109375 5.46484375 -73.109375 5.46484375 -70.75 3.9375 C-69.59757812 3.17759766 -69.59757812 3.17759766 -68.421875 2.40234375 C-66 1 -66 1 -63.265625 -0.05859375 C-60.83871689 -0.77726531 -60.83871689 -0.77726531 -60 -3 C-57.55859375 -4.03515625 -57.55859375 -4.03515625 -54.4375 -5.0625 C-53.42558594 -5.40410156 -52.41367188 -5.74570313 -51.37109375 -6.09765625 C-35.68812953 -10.29552964 -13.62396703 -10.00342461 0 0 Z " fill="#EEEEED" transform="translate(156,12)"/>
<path d="M0 0 C1.78302269 0.00848969 1.78302269 0.00848969 3.60206604 0.01715088 C7.38226332 0.03946274 11.16149755 0.08965237 14.94140625 0.140625 C17.51105398 0.16069658 20.08071663 0.17894619 22.65039062 0.1953125 C28.93522198 0.23931069 35.21949529 0.30617217 41.50390625 0.390625 C41.50390625 1.050625 41.50390625 1.710625 41.50390625 2.390625 C42.58671875 2.75220703 42.58671875 2.75220703 43.69140625 3.12109375 C46.89262592 4.56608874 48.93596268 6.31573996 51.50390625 8.703125 C52.32890625 9.46238281 53.15390625 10.22164062 54.00390625 11.00390625 C56.54378919 13.42870074 59.02278954 15.90581065 61.50390625 18.390625 C62.61562951 19.45865535 63.72901885 20.52495319 64.84375 21.58984375 C66.04312841 22.75243947 67.24234439 23.91520279 68.44140625 25.078125 C69.03630859 25.63951172 69.63121094 26.20089844 70.24414062 26.77929688 C77.77417498 34.14474032 82.09065498 40.85076415 82.30377769 51.63309765 C82.31216163 53.74299336 82.29047148 55.8511902 82.265625 57.9609375 C82.26713092 59.45206001 82.27056952 60.94318168 82.27583313 62.43429565 C82.28014092 65.54270291 82.26350526 68.65006412 82.23120117 71.75830078 C82.19135091 75.72396284 82.20076392 79.6876735 82.22543621 83.65339851 C82.23967713 86.7266312 82.22948854 89.79941475 82.2119236 92.87261581 C82.20611376 94.33410441 82.20731655 95.79563975 82.2159481 97.25711441 C82.26949589 110.84149958 82.26949589 110.84149958 78.25666809 116.78805542 C72.81324309 121.76503924 68.19671463 122.98381866 61.06176758 122.89233398 C59.84092216 122.90043846 59.84092216 122.90043846 58.59541321 122.90870667 C55.92520963 122.92113866 53.25609567 122.90474479 50.5859375 122.88671875 C48.72222334 122.88687382 46.85850886 122.88836416 44.99479675 122.89112854 C41.09868018 122.89250989 37.20293294 122.87999509 33.30688477 122.85717773 C28.31322372 122.82873457 23.32017322 122.83154999 18.32646656 122.84426785 C14.48230266 122.85122037 10.63828 122.84344161 6.79413414 122.83101082 C4.95253732 122.82649634 3.11092535 122.82615949 1.26932716 122.83007622 C-1.30147836 122.83298577 -3.87143982 122.81649628 -6.44213867 122.79467773 C-7.5822641 122.80143021 -7.5822641 122.80143021 -8.74542236 122.80831909 C-11.91579109 122.76359877 -14.17997449 122.55955297 -16.99946594 121.0528717 C-18.49609375 119.390625 -18.49609375 119.390625 -18.49609375 116.390625 C-19.15609375 116.390625 -19.81609375 116.390625 -20.49609375 116.390625 C-23.20407043 112.77163283 -23.86695289 110.15415815 -23.83666992 105.68237305 C-23.83644333 104.56158859 -23.83621674 103.44080414 -23.83598328 102.28605652 C-23.82049942 101.0869313 -23.80501556 99.88780609 -23.7890625 98.65234375 C-23.78481766 97.41643997 -23.78057281 96.18053619 -23.77619934 94.90718079 C-23.76227154 91.63386418 -23.73535352 88.36099592 -23.7020874 85.08782959 C-23.67130622 81.74283985 -23.65793293 78.39783053 -23.64257812 75.05273438 C-23.60952018 68.49852319 -23.55932839 61.94461075 -23.49609375 55.390625 C-20.19609375 55.390625 -16.89609375 55.390625 -13.49609375 55.390625 C-13.4710376 57.01597168 -13.44598145 58.64131836 -13.42016602 60.31591797 C-13.32621858 66.32804686 -13.22596724 72.34005677 -13.1237793 78.35205078 C-13.08038238 80.95749129 -13.03871089 83.56296111 -12.9987793 86.16845703 C-12.94119183 89.90666556 -12.87746435 93.64472582 -12.8125 97.3828125 C-12.79578751 98.55367401 -12.77907501 99.72453552 -12.76185608 100.93087769 C-12.74191086 102.01184723 -12.72196564 103.09281677 -12.70141602 104.20654297 C-12.68587173 105.16140594 -12.67032745 106.11626892 -12.65431213 107.10006714 C-12.64154743 109.42014728 -12.64154743 109.42014728 -11.49609375 111.390625 C15.23390625 111.720625 41.96390625 112.050625 69.50390625 112.390625 C70.58821968 109.1376847 70.66138659 106.69096039 70.70922852 103.2668457 C70.72917374 102.00576492 70.74911896 100.74468414 70.76966858 99.44538879 C70.78665158 98.06906253 70.80353044 96.69273498 70.8203125 95.31640625 C70.84088822 93.90821225 70.86188485 92.50002435 70.88328552 91.09184265 C70.93844247 87.38802019 70.98787979 83.68414259 71.03613281 79.98022461 C71.08639446 76.19965718 71.14205617 72.41916971 71.19726562 68.63867188 C71.30476917 61.22272398 71.40623139 53.80670955 71.50390625 46.390625 C70.4526355 46.40633545 70.4526355 46.40633545 69.38012695 46.42236328 C66.1922568 46.46404168 63.0044441 46.48998885 59.81640625 46.515625 C58.71361328 46.53238281 57.61082031 46.54914063 56.47460938 46.56640625 C55.40791016 46.57285156 54.34121094 46.57929687 53.2421875 46.5859375 C51.7732605 46.60164795 51.7732605 46.60164795 50.2746582 46.61767578 C45.69997995 46.24280127 41.17536646 44.40136888 37.69042969 41.36181641 C34.7989208 36.5581039 35.92814768 29.97521411 36.12890625 24.578125 C36.25265625 19.89625 36.37640625 15.214375 36.50390625 10.390625 C20.33390625 10.720625 4.16390625 11.050625 -12.49609375 11.390625 C-12.82609375 15.680625 -13.15609375 19.970625 -13.49609375 24.390625 C-16.79609375 24.390625 -20.09609375 24.390625 -23.49609375 24.390625 C-23.49609375 19.770625 -23.49609375 15.150625 -23.49609375 10.390625 C-22.83609375 10.390625 -22.17609375 10.390625 -21.49609375 10.390625 C-21.31046875 9.483125 -21.12484375 8.575625 -20.93359375 7.640625 C-19.39517215 4.16245443 -18.0948995 2.96183637 -14.77560425 1.19348145 C-10.01036171 -0.48486384 -4.99117562 -0.08999002 0 0 Z " fill="#ECECEA" transform="translate(156.49609375,55.609375)"/>
<path d="M0 0 C3.4602352 1.7301176 6.171454 3.51238634 9.25 5.8125 C12.64942657 8.33126975 16.03578313 10.67744985 19.6875 12.8125 C20.780625 13.534375 21.87375 14.25625 23 15 C23 15.99 23 16.98 23 18 C22.05125 18.2475 21.1025 18.495 20.125 18.75 C16.93497726 19.6535718 16.93497726 19.6535718 15.875 21.9375 C15.58625 22.618125 15.2975 23.29875 15 24 C12.2286086 26.48469574 9.43785927 27.65839638 6 29 C4.3170608 29.97236487 2.64556566 30.96564444 1 32 C1 28.7 1 25.4 1 22 C-3.25131406 21.99364934 -7.49933096 22.05393343 -11.75 22.125 C-12.93722656 22.12242188 -14.12445313 22.11984375 -15.34765625 22.1171875 C-25.77259025 22.34505491 -34.34086094 25.21990045 -42 32.5 C-45.62588077 37.03673004 -46.64384271 42.22483646 -48.046875 47.765625 C-49.32078343 52.08856016 -50.50468827 54.17046193 -54 57 C-57.1640625 57.1328125 -57.1640625 57.1328125 -60 57 C-60.36775366 49.07286549 -59.93148776 42.40586382 -57 35 C-56.50693359 33.7315625 -56.50693359 33.7315625 -56.00390625 32.4375 C-52.29847751 24.0265614 -46.05149633 18.32655924 -38 14 C-34.1875 13.3125 -34.1875 13.3125 -31 13 C-31 12.34 -31 11.68 -31 11 C-27.64264863 9.88088288 -25.11794614 9.88634414 -21.58203125 9.90234375 C-20.32841797 9.90556641 -19.07480469 9.90878906 -17.78320312 9.91210938 C-15.81770508 9.92467773 -15.81770508 9.92467773 -13.8125 9.9375 C-12.47721519 9.94251683 -11.14192859 9.94707941 -9.80664062 9.95117188 C-6.53771527 9.96297305 -3.26888009 9.97943703 0 10 C0 6.7 0 3.4 0 0 Z " fill="#F7F8F6" transform="translate(151,79)"/>
<path d="M0 0 C1.78302269 0.00848969 1.78302269 0.00848969 3.60206604 0.01715088 C7.38226332 0.03946274 11.16149755 0.08965237 14.94140625 0.140625 C17.51105398 0.16069658 20.08071663 0.17894619 22.65039062 0.1953125 C28.93522198 0.23931069 35.21949529 0.30617217 41.50390625 0.390625 C41.50390625 1.050625 41.50390625 1.710625 41.50390625 2.390625 C42.58671875 2.75220703 42.58671875 2.75220703 43.69140625 3.12109375 C46.89262592 4.56608874 48.93596268 6.31573996 51.50390625 8.703125 C52.37402344 9.51007813 53.24414062 10.31703125 54.140625 11.1484375 C58.58382959 15.36397376 62.64197129 19.64596205 66.50390625 24.390625 C64.52390625 24.390625 62.54390625 24.390625 60.50390625 24.390625 C59.84390625 25.710625 59.18390625 27.030625 58.50390625 28.390625 C54.02196645 25.37393475 50.77150238 22.74741984 47.50390625 18.390625 C46.84390625 18.060625 46.18390625 17.730625 45.50390625 17.390625 C45.61752227 20.18318719 45.74426515 22.97406618 45.87890625 25.765625 C45.90984375 26.5596875 45.94078125 27.35375 45.97265625 28.171875 C46.02207046 32.75729875 46.02207046 32.75729875 48.50390625 36.390625 C51.40358382 36.69737732 54.22173803 36.90235871 57.12890625 37.015625 C57.93070312 37.05429688 58.7325 37.09296875 59.55859375 37.1328125 C61.53998181 37.22716431 63.5219127 37.30998715 65.50390625 37.390625 C65.99890625 36.400625 65.99890625 36.400625 66.50390625 35.390625 C66.83390625 36.380625 67.16390625 37.370625 67.50390625 38.390625 C66.65626709 38.420354 66.65626709 38.420354 65.79150391 38.45068359 C63.23682628 38.54580736 60.68298084 38.65553558 58.12890625 38.765625 C57.23945313 38.7965625 56.35 38.8275 55.43359375 38.859375 C54.5828125 38.89804688 53.73203125 38.93671875 52.85546875 38.9765625 C52.06994629 39.0079834 51.28442383 39.0394043 50.47509766 39.07177734 C48.27387686 39.2305715 48.27387686 39.2305715 46.50390625 41.390625 C42.16747024 41.70600216 40.17737396 41.83960347 36.50390625 39.390625 C36.16333008 36.50146484 36.16333008 36.50146484 36.2109375 32.8515625 C36.21843018 31.67899902 36.22592285 30.50643555 36.23364258 29.29833984 C36.26095459 27.80254395 36.2882666 26.30674805 36.31640625 24.765625 C36.37828125 20.021875 36.44015625 15.278125 36.50390625 10.390625 C20.33390625 10.720625 4.16390625 11.050625 -12.49609375 11.390625 C-12.82609375 15.680625 -13.15609375 19.970625 -13.49609375 24.390625 C-16.79609375 24.390625 -20.09609375 24.390625 -23.49609375 24.390625 C-23.49609375 19.770625 -23.49609375 15.150625 -23.49609375 10.390625 C-22.83609375 10.390625 -22.17609375 10.390625 -21.49609375 10.390625 C-21.31046875 9.483125 -21.12484375 8.575625 -20.93359375 7.640625 C-19.39517215 4.16245443 -18.0948995 2.96183637 -14.77560425 1.19348145 C-10.01036171 -0.48486384 -4.99117562 -0.08999002 0 0 Z " fill="#F3F3F2" transform="translate(156.49609375,55.609375)"/>
<path d="M0 0 C0.99 0.33 1.98 0.66 3 1 C3.90992305 3.72976915 4.12844593 5.35088974 4.1328125 8.16015625 C4.13410156 8.95357422 4.13539062 9.74699219 4.13671875 10.56445312 C4.13285156 11.38880859 4.12898438 12.21316406 4.125 13.0625 C4.12886719 13.89072266 4.13273437 14.71894531 4.13671875 15.57226562 C4.13542969 16.36439453 4.13414063 17.15652344 4.1328125 17.97265625 C4.13168457 18.69718994 4.13055664 19.42172363 4.12939453 20.16821289 C4 22 4 22 3 24 C2.34 24 1.68 24 1 24 C0.7215625 25.2375 0.7215625 25.2375 0.4375 26.5 C-3.06393454 35.02523192 -10.34167293 40.88955371 -18.57226562 44.6184082 C-23.51615014 46.40890722 -28.19840012 46.38050832 -33.40625 46.29296875 C-34.3715564 46.28872391 -35.33686279 46.28447906 -36.3314209 46.28010559 C-39.3879083 46.26343097 -42.44371485 46.22579992 -45.5 46.1875 C-47.58332375 46.17243866 -49.66665793 46.1587528 -51.75 46.14648438 C-56.83359215 46.11356424 -61.91668099 46.06186016 -67 46 C-67.33 44.68 -67.66 43.36 -68 42 C-67.01 41.34 -66.02 40.68 -65 40 C-65.33 39.34 -65.66 38.68 -66 38 C-61.37116134 36.19574119 -57.57049619 35.78100171 -52.6171875 35.83203125 C-51.18749336 35.82634874 -49.75780463 35.81913723 -48.328125 35.81054688 C-46.10965791 35.80640066 -43.89304434 35.8122297 -41.67480469 35.84545898 C-31.22381524 35.97755762 -23.43820505 34.93545275 -15 28 C-11.08722031 23.4959313 -9.14508098 20.21248493 -8.75 14.1875 C-8.15037397 8.22518075 -4.09213153 4.09213153 0 0 Z " fill="#F7F7F6" transform="translate(119,110)"/>
<path d="M0 0 C0 3.63 0 7.26 0 11 C1.7325 10.9071875 1.7325 10.9071875 3.5 10.8125 C8.21213121 10.78725644 11.69559472 12.15525488 16 14 C14.87952194 17.36143418 13.50292817 18.57528834 11 21 C10.67 21.66 10.34 22.32 10 23 C6.7 23 3.4 23 0 23 C0 25.97 0 28.94 0 32 C-0.99 32 -1.98 32 -3 32 C-3 31.34 -3 30.68 -3 30 C-3.5775 29.9175 -4.155 29.835 -4.75 29.75 C-7.62131472 28.79289509 -8.8743794 27.1256206 -11 25 C-12.6635479 24.32558869 -14.33066942 23.6599679 -16 23 C-18.47762823 21.51342306 -20.92332497 20.01682848 -23 18 C-23 17.01 -23 16.02 -23 15 C-20.625 13.25 -20.625 13.25 -18.9921875 12.25 C-15.60764008 10.12636241 -12.41165403 7.72719291 -9.171875 5.390625 C-7 4 -7 4 -5 4 C-5 3.34 -5 2.68 -5 2 C-2 0 -2 0 0 0 Z " fill="#F6F6F5" transform="translate(85,79)"/>
<path d="M0 0 C13.30660377 -0.43867925 13.30660377 -0.43867925 18.8125 4.6875 C20.55588571 8.08251427 20.54357078 11.30518783 20 15 C18.77300736 17.82208306 17.87227231 19.41848512 15.3125 21.125 C12.20891763 22.29932847 9.55735073 22.19114701 6.25 22.125 C3.15625 22.063125 3.15625 22.063125 0 22 C0 14.74 0 7.48 0 0 Z " fill="#DFDFDE" transform="translate(177,121)"/>
<path d="M0 0 C1.25361328 0.00322266 2.50722656 0.00644531 3.79882812 0.00976562 C5.76432617 0.02233398 5.76432617 0.02233398 7.76953125 0.03515625 C9.10481606 0.04017308 10.44010266 0.04473566 11.77539062 0.04882812 C15.04431598 0.0606293 18.31315116 0.07709328 21.58203125 0.09765625 C21.58203125 0.42765625 21.58203125 0.75765625 21.58203125 1.09765625 C12.67203125 1.09765625 3.76203125 1.09765625 -5.41796875 1.09765625 C-5.41796875 1.75765625 -5.41796875 2.41765625 -5.41796875 3.09765625 C-5.98386719 3.29101562 -6.54976562 3.484375 -7.1328125 3.68359375 C-7.86628906 3.94398437 -8.59976563 4.204375 -9.35546875 4.47265625 C-10.45181641 4.85550781 -10.45181641 4.85550781 -11.5703125 5.24609375 C-13.60478991 5.95037038 -13.60478991 5.95037038 -14.41796875 8.09765625 C-15.55234375 8.22140625 -16.68671875 8.34515625 -17.85546875 8.47265625 C-19.61890625 8.78203125 -19.61890625 8.78203125 -21.41796875 9.09765625 C-22.63487408 10.8629522 -22.63487408 10.8629522 -23.41796875 13.09765625 C-25.04350158 14.80446572 -26.7091287 16.4742582 -28.41796875 18.09765625 C-29.07796875 18.75765625 -29.73796875 19.41765625 -30.41796875 20.09765625 C-28.43796875 19.76765625 -26.45796875 19.43765625 -24.41796875 19.09765625 C-24.08796875 20.08765625 -23.75796875 21.07765625 -23.41796875 22.09765625 C-22.75796875 22.75765625 -22.09796875 23.41765625 -21.41796875 24.09765625 C-21.68351562 24.65453125 -21.9490625 25.21140625 -22.22265625 25.78515625 C-23.98553122 29.5939956 -25.53324655 33.15807976 -26.35546875 37.28515625 C-27.65941343 41.96401656 -28.84033797 43.84526463 -32.41796875 47.09765625 C-35.58984375 47.25390625 -35.58984375 47.25390625 -38.41796875 47.09765625 C-38.78572241 39.17052174 -38.34945651 32.50352007 -35.41796875 25.09765625 C-35.08925781 24.25203125 -34.76054688 23.40640625 -34.421875 22.53515625 C-30.71644626 14.12421765 -24.46946508 8.42421549 -16.41796875 4.09765625 C-12.60546875 3.41015625 -12.60546875 3.41015625 -9.41796875 3.09765625 C-9.41796875 2.43765625 -9.41796875 1.77765625 -9.41796875 1.09765625 C-6.06061738 -0.02146087 -3.53591489 -0.01599961 0 0 Z " fill="#EFF0EE" transform="translate(129.41796875,88.90234375)"/>
<path d="M0 0 C1.78302269 0.00848969 1.78302269 0.00848969 3.60206604 0.01715088 C7.38226332 0.03946274 11.16149755 0.08965237 14.94140625 0.140625 C17.51105398 0.16069658 20.08071663 0.17894619 22.65039062 0.1953125 C28.93522198 0.23931069 35.21949529 0.30617217 41.50390625 0.390625 C41.50390625 0.720625 41.50390625 1.050625 41.50390625 1.390625 C26.32390625 1.720625 11.14390625 2.050625 -4.49609375 2.390625 C-4.49609375 3.380625 -4.49609375 4.370625 -4.49609375 5.390625 C-4.49609375 6.050625 -4.49609375 6.710625 -4.49609375 7.390625 C-1.85609375 7.390625 0.78390625 7.390625 3.50390625 7.390625 C3.50390625 7.720625 3.50390625 8.050625 3.50390625 8.390625 C19.83890625 8.885625 19.83890625 8.885625 36.50390625 9.390625 C36.50390625 9.720625 36.50390625 10.050625 36.50390625 10.390625 C20.33390625 10.720625 4.16390625 11.050625 -12.49609375 11.390625 C-12.82609375 15.680625 -13.15609375 19.970625 -13.49609375 24.390625 C-16.79609375 24.390625 -20.09609375 24.390625 -23.49609375 24.390625 C-23.49609375 19.770625 -23.49609375 15.150625 -23.49609375 10.390625 C-22.83609375 10.390625 -22.17609375 10.390625 -21.49609375 10.390625 C-21.31046875 9.483125 -21.12484375 8.575625 -20.93359375 7.640625 C-19.39517215 4.16245443 -18.0948995 2.96183637 -14.77560425 1.19348145 C-10.01036171 -0.48486384 -4.99117562 -0.08999002 0 0 Z " fill="#D6D7D5" transform="translate(156.49609375,55.609375)"/>
<path d="M0 0 C13.27424749 -0.3687291 13.27424749 -0.3687291 16.421875 1.23046875 C18.90982628 4.0201765 18.56363818 6.31401567 18.37109375 9.90234375 C18 12 18 12 16.5625 14.0625 C12.72655847 15.46589324 9.03929179 15.23303606 5 15 C5 17.64 5 20.28 5 23 C3.35 23 1.7 23 0 23 C0 15.41 0 7.82 0 0 Z " fill="#CECECC" transform="translate(154,121)"/>
<path d="M0 0 C5.15327577 2.40268765 8.39784467 6.2583862 12 10.5625 C14.41739075 13.44332836 17.05289237 15.65964983 20 18 C20 18.66 20 19.32 20 20 C17.22858283 20.08089542 14.45952181 20.14044062 11.6875 20.1875 C10.90181641 20.21263672 10.11613281 20.23777344 9.30664062 20.26367188 C8.54931641 20.27333984 7.79199219 20.28300781 7.01171875 20.29296875 C6.31522217 20.3086792 5.61872559 20.32438965 4.90112305 20.34057617 C2.36446695 19.8861476 1.51054428 19.0644881 0 17 C-0.34057617 15.09887695 -0.34057617 15.09887695 -0.29296875 12.98828125 C-0.28330078 12.23095703 -0.27363281 11.47363281 -0.26367188 10.69335938 C-0.23853516 9.90767578 -0.21339844 9.12199219 -0.1875 8.3125 C-0.17396484 7.51521484 -0.16042969 6.71792969 -0.14648438 5.89648438 C-0.11117089 3.93070033 -0.05736447 1.96526418 0 0 Z " fill="#191A19" transform="translate(202,73)"/>
<path d="M0 0 C5.28 0 10.56 0 16 0 C16 1.32 16 2.64 16 4 C12.37 4 8.74 4 5 4 C5 5.98 5 7.96 5 10 C8.63 10 12.26 10 16 10 C16 11.32 16 12.64 16 14 C12.37 14 8.74 14 5 14 C5 16.97 5 19.94 5 23 C3.35 23 1.7 23 0 23 C0 15.41 0 7.82 0 0 Z " fill="#EAEAE8" transform="translate(201,121)"/>
<path d="M0 0 C1.231394 2.46278801 1.07159196 4.2795055 1 7 C2.32 6.34 3.64 5.68 5 5 C4.68804687 5.56074219 4.37609375 6.12148437 4.0546875 6.69921875 C2.94393739 9.12229954 2.53041441 11.1855801 2.125 13.8125 C1.20886283 18.65800673 -0.1451667 21.9696471 -3 26 C-5.25 27.4375 -5.25 27.4375 -7 28 C-7 26.02 -7 24.04 -7 22 C-8.32 22.33 -9.64 22.66 -11 23 C-10.401875 22.2575 -9.80375 21.515 -9.1875 20.75 C-7.06350665 17.62735714 -6.31887334 14.60659547 -5.5 10.9375 C-4.4751958 6.37966918 -3.45336374 3.33428224 0 0 Z " fill="#181818" transform="translate(109,111)"/>
<path d="M0 0 C6.20970773 -0.33266291 10.28264895 0.54970669 16 3 C14.87952194 6.36143418 13.50292817 7.57528834 11 10 C10.67 10.66 10.34 11.32 10 12 C6.7 12 3.4 12 0 12 C0 14.97 0 17.94 0 21 C-0.99 20.67 -1.98 20.34 -3 20 C-2.34 20 -1.68 20 -1 20 C-1 17.03 -1 14.06 -1 11 C-0.01 10.67 0.98 10.34 2 10 C2.33 7.03 2.66 4.06 3 1 C2.01 0.67 1.02 0.34 0 0 Z " fill="#E0E0DF" transform="translate(85,90)"/>
<path d="M0 0 C3.63 0 7.26 0 11 0 C11 0.66 11 1.32 11 2 C8.69 2.33 6.38 2.66 4 3 C3.34 5.97 2.68 8.94 2 12 C2.33 11.67 2.66 11.34 3 11 C4.85287502 10.92773498 6.70833878 10.9161878 8.5625 10.9375 C9.57441406 10.94652344 10.58632812 10.95554688 11.62890625 10.96484375 C12.80259766 10.98224609 12.80259766 10.98224609 14 11 C14 10.01 14 9.02 14 8 C14.66 8 15.32 8 16 8 C15.625 10.4375 15.625 10.4375 15 13 C12.70370006 14.14814997 10.92301914 14.30769809 8.375 14.5625 C7.55773437 14.64628906 6.74046875 14.73007813 5.8984375 14.81640625 C5.27195313 14.87699219 4.64546875 14.93757812 4 15 C3.67 16.98 3.34 18.96 3 21 C2.01 21 1.02 21 0 21 C0 14.07 0 7.14 0 0 Z " fill="#F2F2EF" transform="translate(155,122)"/>
<path d="M0 0 C6.625 -0.25 6.625 -0.25 10 2 C10.36328125 3.875 10.36328125 3.875 10.3125 6 C10.30863281 6.70125 10.30476562 7.4025 10.30078125 8.125 C10 10 10 10 8 12 C5.31160615 12.26991906 2.70858064 12.08737357 0 12 C0 8.04 0 4.08 0 0 Z " fill="#090909" transform="translate(182,126)"/>
<path d="M0 0 C1.25361328 0.00322266 2.50722656 0.00644531 3.79882812 0.00976562 C5.76432617 0.02233398 5.76432617 0.02233398 7.76953125 0.03515625 C9.10481606 0.04017308 10.44010266 0.04473566 11.77539062 0.04882812 C15.04431598 0.0606293 18.31315116 0.07709328 21.58203125 0.09765625 C21.58203125 0.42765625 21.58203125 0.75765625 21.58203125 1.09765625 C12.67203125 1.09765625 3.76203125 1.09765625 -5.41796875 1.09765625 C-5.41796875 1.75765625 -5.41796875 2.41765625 -5.41796875 3.09765625 C-5.98386719 3.29101562 -6.54976562 3.484375 -7.1328125 3.68359375 C-7.86628906 3.94398437 -8.59976563 4.204375 -9.35546875 4.47265625 C-10.45181641 4.85550781 -10.45181641 4.85550781 -11.5703125 5.24609375 C-13.60478991 5.95037038 -13.60478991 5.95037038 -14.41796875 8.09765625 C-15.55234375 8.22140625 -16.68671875 8.34515625 -17.85546875 8.47265625 C-19.61890625 8.78203125 -19.61890625 8.78203125 -21.41796875 9.09765625 C-22.63487408 10.8629522 -22.63487408 10.8629522 -23.41796875 13.09765625 C-27.76579484 17.77156929 -27.76579484 17.77156929 -30.41796875 19.09765625 C-30.74796875 20.08765625 -31.07796875 21.07765625 -31.41796875 22.09765625 C-32.07796875 22.09765625 -32.73796875 22.09765625 -33.41796875 22.09765625 C-31.08715966 14.40598626 -25.25719653 9.44816412 -18.67578125 5.25390625 C-15.50945407 3.63239614 -12.95304842 3.24808517 -9.41796875 3.09765625 C-9.41796875 2.43765625 -9.41796875 1.77765625 -9.41796875 1.09765625 C-6.06061738 -0.02146087 -3.53591489 -0.01599961 0 0 Z " fill="#9B9B9B" transform="translate(129.41796875,88.90234375)"/>
<path d="M0 0 C5.28 0 10.56 0 16 0 C16 1.32 16 2.64 16 4 C12.37 4 8.74 4 5 4 C5 5.98 5 7.96 5 10 C4.01 9.01 3.02 8.02 2 7 C1.67 11.95 1.34 16.9 1 22 C2.32 22.33 3.64 22.66 5 23 C3.35 23 1.7 23 0 23 C0 15.41 0 7.82 0 0 Z " fill="#B3B3B2" transform="translate(201,121)"/>
<path d="M0 0 C2.31 0 4.62 0 7 0 C7 0.33 7 0.66 7 1 C5.02 1 3.04 1 1 1 C1 4.96 1 8.92 1 13 C2.299375 12.855625 3.59875 12.71125 4.9375 12.5625 C5.66839844 12.48128906 6.39929688 12.40007812 7.15234375 12.31640625 C9.01140229 12.18113386 9.01140229 12.18113386 10 11 C10.23075082 9.65252916 10.41153063 8.29622435 10.5625 6.9375 C10.706875 5.638125 10.85125 4.33875 11 3 C11.66 3 12.32 3 13 3 C13.33 3.99 13.66 4.98 14 6 C14.66 5.01 15.32 4.02 16 3 C16.45402627 11.92918332 16.45402627 11.92918332 13 16 C10.8125 16.8125 10.8125 16.8125 9 17 C9 16.34 9 15.68 9 15 C7.700625 15.020625 6.40125 15.04125 5.0625 15.0625 C3.70834367 15.08399454 2.35243917 15.07148199 1 15 C0 14 0 14 -0.09765625 10.83984375 C-0.08025391 8.90818359 -0.08025391 8.90818359 -0.0625 6.9375 C-0.05347656 5.64714844 -0.04445312 4.35679687 -0.03515625 3.02734375 C-0.02355469 2.02832031 -0.01195312 1.02929688 0 0 Z " fill="#BFBFBD" transform="translate(181,125)"/>
<path d="M0 0 C0.33 0 0.66 0 1 0 C1 7.26 1 14.52 1 22 C0.67 22 0.34 22 0 22 C-0.144375 20.88625 -0.28875 19.7725 -0.4375 18.625 C-0.78372035 15.17857953 -0.78372035 15.17857953 -2 13 C-2.639375 13.66 -3.27875 14.32 -3.9375 15 C-8.04464253 17.68221553 -11.23379829 17.37381974 -16 17 C-16 18.65 -16 20.3 -16 22 C-16.33 22 -16.66 22 -17 22 C-17 19.69 -17 17.38 -17 15 C-16.38511719 14.95101562 -15.77023438 14.90203125 -15.13671875 14.8515625 C-14.32847656 14.77679688 -13.52023438 14.70203125 -12.6875 14.625 C-11.88699219 14.55539063 -11.08648437 14.48578125 -10.26171875 14.4140625 C-7.72775559 14.10435574 -7.72775559 14.10435574 -5 12 C-4.42006301 9.80545319 -4.42006301 9.80545319 -4.3125 7.375 C-4.24675781 6.55773437 -4.18101562 5.74046875 -4.11328125 4.8984375 C-4.07589844 4.27195312 -4.03851563 3.64546875 -4 3 C-3.34 3.66 -2.68 4.32 -2 5 C-1.34 3.35 -0.68 1.7 0 0 Z " fill="#2C2D2C" transform="translate(176,121)"/>
<path d="M0 0 C1.32 0.33 2.64 0.66 4 1 C4 6.28 4 11.56 4 17 C6.64 17.33 9.28 17.66 12 18 C12 18.99 12 19.98 12 21 C10.56260487 21.02712066 9.12506137 21.04645067 7.6875 21.0625 C6.48673828 21.07990234 6.48673828 21.07990234 5.26171875 21.09765625 C3 21 3 21 0 20 C0 13.4 0 6.8 0 0 Z " fill="#F8F9F5" transform="translate(178,122)"/>
<path d="M0 0 C0.99 0.33 1.98 0.66 3 1 C4.35201312 5.05603936 4.18417967 8.81579445 4.1875 13.0625 C4.19974609 13.89072266 4.21199219 14.71894531 4.22460938 15.57226562 C4.22750977 16.76045898 4.22750977 16.76045898 4.23046875 17.97265625 C4.23457764 18.69718994 4.23868652 19.42172363 4.24291992 20.16821289 C4 22 4 22 2 24 C2 18.39 2 12.78 2 7 C1.67 7.99 1.34 8.98 1 10 C-0.32 10 -1.64 10 -3 10 C-3.99 10.33 -4.98 10.66 -6 11 C-6.33 12.65 -6.66 14.3 -7 16 C-7.33 16 -7.66 16 -8 16 C-8.4783279 12.81114736 -8.41173783 10.68622972 -6.734375 7.890625 C-4.62846659 5.08956236 -2.4788452 2.4788452 0 0 Z " fill="#B5B5B3" transform="translate(119,110)"/>
<path d="M0 0 C1.17667003 3.71926471 0.51518316 6.09940019 -0.51171875 9.84375 C-1.46922363 14.07209154 -1.64225458 18.25673757 -0.125 22.375 C1.03540441 24.15466137 1.03540441 24.15466137 3 26 C3.33 26.99 3.66 27.98 4 29 C2.6875 30.5 2.6875 30.5 1 32 C0.01 32 -0.98 32 -2 32 C-4.76824198 22.05041686 -4.00118907 9.47900744 0 0 Z " fill="#AAABA9" transform="translate(14,88)"/>
<path d="M0 0 C6.75 -0.125 6.75 -0.125 9 1 C9 2.98 9 4.96 9 7 C6.03 7 3.06 7 0 7 C0 4.69 0 2.38 0 0 Z " fill="#3D3D3C" transform="translate(159,125)"/>
<path d="M0 0 C0.66 0.33 1.32 0.66 2 1 C2 1.99 2 2.98 2 4 C-0.09373727 6.01619145 -1.48404328 6.92107899 -4.375 7.36328125 C-7.53029846 8.12862894 -8.95387813 9.36378469 -11.3125 11.5625 C-12.00988281 12.20316406 -12.70726562 12.84382813 -13.42578125 13.50390625 C-13.94527344 13.99761719 -14.46476562 14.49132812 -15 15 C-15 12 -15 12 -12.8125 9.5625 C-5.6097561 3 -5.6097561 3 -3 3 C-3 2.34 -3 1.68 -3 1 C-2.01 0.67 -1.02 0.34 0 0 Z " fill="#BFBFBF" transform="translate(38,61)"/>
<path d="M0 0 C2.4375 0.75 2.4375 0.75 5 2 C5.8125 4.125 5.8125 4.125 6 6 C5.05125 6.2475 4.1025 6.495 3.125 6.75 C-0.06502274 7.6535718 -0.06502274 7.6535718 -1.125 9.9375 C-1.41375 10.618125 -1.7025 11.29875 -2 12 C-4.125 13.75 -4.125 13.75 -6 15 C-6.66 14.67 -7.32 14.34 -8 14 C-6.50260417 12.79557292 -5.00520833 11.59114583 -3.5078125 10.38671875 C-1.74707893 8.87729455 -1.74707893 8.87729455 0 6 C0.16699232 2.87478167 0.16699232 2.87478167 0 0 Z " fill="#ABABAB" transform="translate(168,91)"/>
<path d="M0 0 C3.63 0 7.26 0 11 0 C11 0.66 11 1.32 11 2 C8.69 2.33 6.38 2.66 4 3 C3.34 5.64 2.68 8.28 2 11 C1.67 11 1.34 11 1 11 C0.67 7.37 0.34 3.74 0 0 Z " fill="#FBFBF8" transform="translate(155,122)"/>
<path d="M0 0 C0.33 0 0.66 0 1 0 C1.6104394 8.88528458 1.6104394 8.88528458 -0.4375 12.625 C-4.23657069 14.66352574 -7.77785621 14.32478029 -12 14 C-12 15.65 -12 17.3 -12 19 C-12.33 19 -12.66 19 -13 19 C-13 16.69 -13 14.38 -13 12 C-12.38511719 11.95101562 -11.77023438 11.90203125 -11.13671875 11.8515625 C-10.32847656 11.77679688 -9.52023438 11.70203125 -8.6875 11.625 C-7.88699219 11.55539063 -7.08648437 11.48578125 -6.26171875 11.4140625 C-3.72775559 11.10435574 -3.72775559 11.10435574 -1 9 C-0.42006301 6.80545319 -0.42006301 6.80545319 -0.3125 4.375 C-0.24675781 3.55773437 -0.18101562 2.74046875 -0.11328125 1.8984375 C-0.07589844 1.27195312 -0.03851563 0.64546875 0 0 Z " fill="#5E5F5E" transform="translate(172,124)"/>
<path d="M0 0 C0 3.3 0 6.6 0 10 C-0.33 10 -0.66 10 -1 10 C-1 8.02 -1 6.04 -1 4 C-1.86625 4.639375 -2.7325 5.27875 -3.625 5.9375 C-6.9598812 7.97548296 -9.16047478 8.63433093 -13 9 C-10.47211993 6.20127563 -8.79588866 4.54226981 -5 4 C-5 3.34 -5 2.68 -5 2 C-2 0 -2 0 0 0 Z " fill="#AFAFAF" transform="translate(85,79)"/>
<path d="M0 0 C4.62 0 9.24 0 14 0 C14 0.99 14 1.98 14 3 C12.04174127 3.02694851 10.08337774 3.04637218 8.125 3.0625 C7.03445312 3.07410156 5.94390625 3.08570312 4.8203125 3.09765625 C2 3 2 3 0 2 C0 1.34 0 0.68 0 0 Z " fill="#EEEEEA" transform="translate(203,122)"/>
<path d="M0 0 C0.33 0.66 0.66 1.32 1 2 C0.01 2.495 0.01 2.495 -1 3 C-2.24061454 6.17045938 -3 8.58238295 -3 12 C-5 11 -7 10 -9 9 C-9 8.01 -9 7.02 -9 6 C-6.1875 3.9375 -6.1875 3.9375 -3 2 C-2.01 1.34 -1.02 0.68 0 0 Z " fill="#C2C2C2" transform="translate(71,88)"/>
<path d="M0 0 C2.02054804 1.64169528 4.02043058 3.30911778 6 5 C6 5.33 6 5.66 6 6 C4.02 6 2.04 6 0 6 C-0.66 7.32 -1.32 8.64 -2 10 C-2.99 9.01 -3.98 8.02 -5 7 C-4.01 6.34 -3.02 5.68 -2 5 C-0.79549696 2.44816596 -0.79549696 2.44816596 0 0 Z " fill="#E5E6E3" transform="translate(217,74)"/>
<path d="M0 0 C1.32 0.33 2.64 0.66 4 1 C1.31316568 4.68195814 -1.11817781 6.69188951 -5 9 C-5.33 9.99 -5.66 10.98 -6 12 C-6.66 12 -7.32 12 -8 12 C-6.49087042 7.01987239 -3.44338151 3.75740058 0 0 Z " fill="#B8B8B7" transform="translate(104,99)"/>
<path d="M0 0 C3.23475448 1.61737724 4.70572021 2.47629223 7 5 C6.21625 5.268125 5.4325 5.53625 4.625 5.8125 C1.71885077 6.84814432 1.71885077 6.84814432 0 10 C0 6.7 0 3.4 0 0 Z " fill="#C2C3C1" transform="translate(151,79)"/>
<path d="M0 0 C0.66 0.33 1.32 0.66 2 1 C2.625 4.0625 2.625 4.0625 3 7 C3.33 7 3.66 7 4 7 C4 8.65 4 10.3 4 12 C2.02 12.99 0.04 13.98 -2 15 C-1.67 14.38125 -1.34 13.7625 -1 13.125 C0.40387684 8.73788488 0.15967523 4.56848573 0 0 Z " fill="#414140" transform="translate(196,126)"/>
<path d="M0 0 C1.98 0 3.96 0 6 0 C6 1.65 6 3.3 6 5 C4.02 5 2.04 5 0 5 C0 3.35 0 1.7 0 0 Z " fill="#070807" transform="translate(160,126)"/>
<path d="M0 0 C0 0.66 0 1.32 0 2 C-0.99 2.66 -1.98 3.32 -3 4 C-4.19232613 6.05003955 -4.19232613 6.05003955 -5 8 C-6.65 8 -8.3 8 -10 8 C-10 7.34 -10 6.68 -10 6 C-6.53846154 3 -6.53846154 3 -4 3 C-4 2.34 -4 1.68 -4 1 C-2 0 -2 0 0 0 Z " fill="#3B3C3B" transform="translate(44,72)"/>
<path d="M0 0 C-0.33 0.99 -0.66 1.98 -1 3 C-4.5625 4.1875 -4.5625 4.1875 -8 5 C-7.625 2.5625 -7.625 2.5625 -7 0 C-4.3333581 -1.33332095 -2.83319697 -0.67102033 0 0 Z " fill="#D6D6D5" transform="translate(125,100)"/>
<path d="M0 0 C0.66 0.33 1.32 0.66 2 1 C-0.31 3.97 -2.62 6.94 -5 10 C-5.99 9.67 -6.98 9.34 -8 9 C-8 8.34 -8 7.68 -8 7 C-7.34 7 -6.68 7 -6 7 C-5.67 6.01 -5.34 5.02 -5 4 C-3.37667033 2.61423077 -1.71275535 1.27358732 0 0 Z " fill="#B9BAB6" transform="translate(86,15)"/>
<path d="M0 0 C0.66 0.99 1.32 1.98 2 3 C-0.97 5.475 -0.97 5.475 -4 8 C-4.33 6.68 -4.66 5.36 -5 4 C-4.01 3.67 -3.02 3.34 -2 3 C-2 2.34 -2 1.68 -2 1 C-1.34 0.67 -0.68 0.34 0 0 Z " fill="#E7E7E6" transform="translate(112,104)"/>
<path d="M0 0 C0.99 0.33 1.98 0.66 3 1 C2.6875 3.875 2.6875 3.875 2 7 C1.01 7.66 0.02 8.32 -1 9 C-1.33 8.34 -1.66 7.68 -2 7 C-2.66 6.67 -3.32 6.34 -4 6 C-3.34 5.566875 -2.68 5.13375 -2 4.6875 C-1.01 3.8521875 -1.01 3.8521875 0 3 C0 2.01 0 1.02 0 0 Z " fill="#303030" transform="translate(100,92)"/>
<path d="M0 0 C0.66 0 1.32 0 2 0 C1.4375 1.875 1.4375 1.875 0 4 C-4.10870902 5.59783129 -6.79911692 6.28617345 -11 5 C-9.93458984 4.58427734 -9.93458984 4.58427734 -8.84765625 4.16015625 C-7.46900391 3.61681641 -7.46900391 3.61681641 -6.0625 3.0625 C-5.14597656 2.70285156 -4.22945313 2.34320313 -3.28515625 1.97265625 C-1.07581467 1.2003782 -1.07581467 1.2003782 0 0 Z " fill="#545454" transform="translate(107,150)"/>
<path d="M0 0 C5.94 0.33 11.88 0.66 18 1 C18 1.33 18 1.66 18 2 C12.06 2.33 6.12 2.66 0 3 C0 2.01 0 1.02 0 0 Z " fill="#C4C4C3" transform="translate(112,14)"/>
<path d="M0 0 C-1.5 2.0625 -1.5 2.0625 -4 4 C-6.82406647 4.05928384 -9.20225927 3.55954815 -12 3 C-10.66666667 2.33333333 -9.33333333 1.66666667 -8 1 C-7.34 0.608125 -6.68 0.21625 -6 -0.1875 C-3.57136965 -1.17413108 -2.42552909 -0.86626039 0 0 Z " fill="#B9B9B6" transform="translate(108,7)"/>
<path d="M0 0 C0.66 0 1.32 0 2 0 C1.67 1.65 1.34 3.3 1 5 C-2.3 5 -5.6 5 -9 5 C-5.23312136 3.11656068 -3.97041037 2.77942165 0 3 C0 2.01 0 1.02 0 0 Z " fill="#F7F7F6" transform="translate(169,130)"/>
<path d="M0 0 C1.231394 2.46278801 1.07159196 4.2795055 1 7 C-0.65 7.66 -2.3 8.32 -4 9 C-3.46930939 5.17902761 -2.50298434 2.93828597 0 0 Z " fill="#373737" transform="translate(109,111)"/>
<path d="M0 0 C2.625 0.9375 2.625 0.9375 5 2 C5 3.65 5 5.3 5 7 C-0.875 3.25 -0.875 3.25 -2 1 C-1.34 0.67 -0.68 0.34 0 0 Z " fill="#202122" transform="translate(155,78)"/>
<path d="M0 0 C-1.47692308 4.67692308 -1.47692308 4.67692308 -4.125 6.3125 C-5.053125 6.6528125 -5.053125 6.6528125 -6 7 C-6.33 6.01 -6.66 5.02 -7 4 C-6.01 3.67 -5.02 3.34 -4 3 C-4 2.34 -4 1.68 -4 1 C-2 0 -2 0 0 0 Z " fill="#E4E5E1" transform="translate(236,168)"/>
<path d="M0 0 C0.33 0.66 0.66 1.32 1 2 C-0.6875 4.5 -0.6875 4.5 -3 7 C-5.75 7.3125 -5.75 7.3125 -8 7 C-5.4837822 4.39391727 -2.94865641 2.10618315 0 0 Z " fill="#B5B5B5" transform="translate(106,136)"/>
<path d="M0 0 C0.66 0.33 1.32 0.66 2 1 C2 1.99 2 2.98 2 4 C-0.5 5.6875 -0.5 5.6875 -3 7 C-4 4 -4 4 -3 1 C-2.01 0.67 -1.02 0.34 0 0 Z " fill="#D2D2D1" transform="translate(38,61)"/>
<path d="M0 0 C0 0.99 0 1.98 0 3 C-2.97 3 -5.94 3 -9 3 C-5.92807025 0.26939578 -4.09590633 -0.34132553 0 0 Z " fill="#EDEDEA" transform="translate(190,140)"/>
<path d="M0 0 C1.98 0.495 1.98 0.495 4 1 C3.2884375 1.7734375 3.2884375 1.7734375 2.5625 2.5625 C0.57190593 5.66782675 0.34939182 8.36632504 0 12 C-0.33 12 -0.66 12 -1 12 C-1.02712066 10.56260487 -1.04645067 9.12506137 -1.0625 7.6875 C-1.07410156 6.88699219 -1.08570313 6.08648437 -1.09765625 5.26171875 C-1 3 -1 3 0 0 Z " fill="#1C1D1C" transform="translate(144,67)"/>
<path d="M0 0 C1 2 1 2 0.44140625 3.9453125 C0.15136719 4.66460937 -0.13867188 5.38390625 -0.4375 6.125 C-0.72496094 6.84945312 -1.01242188 7.57390625 -1.30859375 8.3203125 C-1.53675781 8.87460937 -1.76492187 9.42890625 -2 10 C-3.4783226 7.04335481 -3.06032783 4.25770263 -3 1 C-2.01 0.67 -1.02 0.34 0 0 Z " fill="#BABABA" transform="translate(76,44)"/>
<path d="M0 0 C1.32 0.33 2.64 0.66 4 1 C3.67 3.31 3.34 5.62 3 8 C2.67 8 2.34 8 2 8 C2 6.35 2 4.7 2 3 C1.34 3 0.68 3 0 3 C0 2.01 0 1.02 0 0 Z " fill="#F3F3F2" transform="translate(192,125)"/>
<path d="M0 0 C1.98 0.66 3.96 1.32 6 2 C6 3.98 6 5.96 6 8 C1.125 3.375 1.125 3.375 0 0 Z " fill="#D8D8D6" transform="translate(20,134)"/>
<path d="M0 0 C0.66 0 1.32 0 2 0 C3.38938077 1.96147874 4.7260411 3.96166576 6 6 C5.67 6.66 5.34 7.32 5 8 C2.5 6.25 2.5 6.25 0 4 C0 2.68 0 1.36 0 0 Z " fill="#B8B9B7" transform="translate(174,30)"/>
<path d="M0 0 C1.65 0 3.3 0 5 0 C5.66 1.98 6.32 3.96 7 6 C1.125 2.25 1.125 2.25 0 0 Z " fill="#C8C8C6" transform="translate(155,26)"/>
<path d="M0 0 C2.6875 -0.3125 2.6875 -0.3125 5 0 C2.47211993 2.79872437 0.79588866 4.45773019 -3 5 C-1.8125 2.5 -1.8125 2.5 0 0 Z " fill="#E3E3E3" transform="translate(105,148)"/>
<path d="M0 0 C5.66153846 1.47692308 5.66153846 1.47692308 7.375 4.125 C7.684375 5.053125 7.684375 5.053125 8 6 C4.08597051 4.73058503 2.20927127 3.48832306 0 0 Z " fill="#3A3B3B" transform="translate(34,133)"/>
<path d="M0 0 C1.9375 0.375 1.9375 0.375 4 1 C4.33 1.66 4.66 2.32 5 3 C4.34 3 3.68 3 3 3 C3 3.99 3 4.98 3 6 C1.68 5.34 0.36 4.68 -1 4 C-0.01 3.67 0.98 3.34 2 3 C2 2.34 2 1.68 2 1 C1.34 0.67 0.68 0.34 0 0 Z " fill="#C5C6C5" transform="translate(189,122)"/>
</svg>
