<?xml version="1.0" encoding="UTF-8"?>
<svg version="1.1" xmlns="http://www.w3.org/2000/svg" width="263" height="195">
<path d="M0 0 C1.51110352 -0.01836914 1.51110352 -0.01836914 3.05273438 -0.03710938 C17.74419119 -0.06582232 30.13820244 5.24029721 41.6875 14.1875 C42.5125 14.79851563 43.3375 15.40953125 44.1875 16.0390625 C52.47668651 23.16258216 59.09018196 33.58178466 61.6875 44.1875 C59.74413221 46.13086779 56.3954005 45.49383393 53.8125 45.5625 C52.55695313 45.61148438 51.30140625 45.66046875 50.0078125 45.7109375 C46.6875 45.1875 46.6875 45.1875 44.85546875 42.84375 C44.27732422 41.52890625 44.27732422 41.52890625 43.6875 40.1875 C36.29257089 28.45761245 26.56561647 19.43974548 12.6875 16.1875 C11.759375 15.960625 10.83125 15.73375 9.875 15.5 C-4.81929838 14.05938251 -16.65621853 16.60218272 -29.3125 24.1875 C-30.63903166 24.86759999 -31.96999503 25.53950106 -33.3125 26.1875 C-33.3125 26.8475 -33.3125 27.5075 -33.3125 28.1875 C-34.6875 29.8125 -34.6875 29.8125 -36.3125 31.1875 C-36.9725 31.1875 -37.6325 31.1875 -38.3125 31.1875 C-38.7765625 32.115625 -38.7765625 32.115625 -39.25 33.0625 C-39.9375 34.4375 -40.625 35.8125 -41.3125 37.1875 C-41.9725 37.1875 -42.6325 37.1875 -43.3125 37.1875 C-43.49425781 37.73277344 -43.67601563 38.27804688 -43.86328125 38.83984375 C-44.11464844 39.59394531 -44.36601563 40.34804688 -44.625 41.125 C-44.89828125 41.95128906 -45.1715625 42.77757812 -45.453125 43.62890625 C-45.98937171 45.22545895 -46.53919945 46.81759112 -47.109375 48.40234375 C-49.17752448 54.2374798 -50.3420208 60.07918973 -51.3125 66.1875 C-54.62513141 67.29171047 -56.89871127 67.18680115 -60.375 67.0625 C-70.71963757 67.00502979 -79.6423921 69.7840843 -87.22265625 77.0078125 C-94.42803289 84.80981268 -97.80836013 93.12954184 -98.5625 103.6875 C-97.97483177 111.91485516 -95.77789233 119.17802657 -91.3125 126.1875 C-89.8275 127.1775 -89.8275 127.1775 -88.3125 128.1875 C-88.3125 128.8475 -88.3125 129.5075 -88.3125 130.1875 C-87.3225 130.5175 -86.3325 130.8475 -85.3125 131.1875 C-84.85875 131.64898437 -84.405 132.11046875 -83.9375 132.5859375 C-81.92214267 134.57222718 -79.85397217 135.57958344 -77.3125 136.8125 C-76.013125 137.45058594 -76.013125 137.45058594 -74.6875 138.1015625 C-67.96116257 141.17709178 -60.66538955 140.48767399 -53.40014648 140.53759766 C-51.64577907 140.55408273 -49.89147673 140.58127343 -48.13745117 140.61962891 C-32.80856588 141.04353963 -32.80856588 141.04353963 -19.68920898 133.74389648 C-15.7318766 129.44971013 -14.34417625 125.11975117 -14.25 119.375 C-13.69666333 113.4151029 -8.56277004 109.89682658 -4.3125 106.1875 C-2.8275 106.6825 -2.8275 106.6825 -1.3125 107.1875 C2.06545586 115.36570892 1.5600218 124.50403798 -1.28515625 132.77734375 C-5.77772203 143.31693724 -13.81257103 149.7921809 -24.3125 154.1875 C-28.89818335 155.39539999 -33.41999724 155.36596414 -38.12890625 155.390625 C-38.98121323 155.39632507 -39.8335202 155.40202515 -40.71165466 155.40789795 C-42.51454436 155.41732482 -44.31745112 155.42387272 -46.12036133 155.42773438 C-48.8416265 155.43738169 -51.5621168 155.46840252 -54.28320312 155.5 C-70.66314765 155.60118558 -85.23056822 153.35094071 -97.765625 141.80078125 C-109.36183365 129.70675557 -113.92734314 116.14777883 -113.62890625 99.5546875 C-112.32773914 85.70769926 -106.45247039 73.65594918 -96.3125 64.1875 C-95.6525 64.1875 -94.9925 64.1875 -94.3125 64.1875 C-94.3125 63.5275 -94.3125 62.8675 -94.3125 62.1875 C-84.51282977 55.30617488 -75.1571939 51.9046109 -63.3125 51.1875 C-63.21324219 50.17558594 -63.11398438 49.16367187 -63.01171875 48.12109375 C-61.31203793 38.55920221 -55.4600246 29.57169865 -49.3125 22.1875 C-48.260625 20.7953125 -48.260625 20.7953125 -47.1875 19.375 C-45.36685615 17.2509155 -43.6727133 15.68230176 -41.3125 14.1875 C-40.6525 14.1875 -39.9925 14.1875 -39.3125 14.1875 C-39.3125 13.5275 -39.3125 12.8675 -39.3125 12.1875 C-27.7057814 3.25320871 -14.28275108 0.009034 0 0 Z " fill="#F9F9F8" transform="translate(123.3125,2.8125)"/>
<path d="M0 0 C1.19523285 0.00137466 2.3904657 0.00274933 3.62191772 0.00416565 C6.13833602 0.01319623 8.65473936 0.03674474 11.17089844 0.07397461 C15.01818331 0.12883133 18.86330177 0.13550253 22.7109375 0.13476562 C25.16147702 0.14951054 27.61200191 0.16699525 30.0625 0.1875 C31.78299057 0.19250771 31.78299057 0.19250771 33.53823853 0.19761658 C40.58781328 0.32314446 45.29314994 0.99470916 50.7734375 5.75390625 C52.3984375 7.69140625 52.3984375 7.69140625 52.3984375 9.69140625 C53.28015625 10.09939453 53.28015625 10.09939453 54.1796875 10.515625 C59.6272587 13.4024541 63.67926377 17.85648041 67.3984375 22.69140625 C69.67283426 25.0289807 71.97799994 27.30889051 74.390625 29.50390625 C75.09445313 30.16390625 75.79828125 30.82390625 76.5234375 31.50390625 C77.18601562 32.10847656 77.84859375 32.71304688 78.53125 33.3359375 C84.61291716 41.00799879 83.84046961 50.07994024 83.796875 59.35546875 C83.79889919 60.87665954 83.80181349 62.39784938 83.80557251 63.91903687 C83.80997699 67.09455681 83.803624 70.2698223 83.78955078 73.4453125 C83.77243046 77.50496907 83.78232958 81.56403176 83.80026817 85.62366676 C83.81113209 88.76018717 83.80764828 91.89656777 83.7998848 95.0330925 C83.7978915 96.52973883 83.80031132 98.02639809 83.80732346 99.52302933 C83.81498467 101.6167673 83.80327155 103.70955506 83.78662109 105.80322266 C83.78423431 106.99154694 83.78184753 108.17987122 83.77938843 109.40420532 C83.27804452 113.73026949 81.84582615 117.10455568 78.8984375 120.3359375 C73.69908578 124.38439105 69.96509885 124.84554899 63.56567383 124.8684082 C62.76853973 124.8749794 61.97140564 124.8815506 61.15011597 124.88832092 C58.51023258 124.9080413 55.87040611 124.91971505 53.23046875 124.9296875 C51.87601937 124.93580079 51.87601937 124.93580079 50.49420738 124.94203758 C45.71285608 124.96289513 40.93153343 124.97719698 36.15014648 124.98657227 C31.22176681 124.9976229 26.29384036 125.0320081 21.36562061 125.07174397 C17.56765427 125.09794617 13.76979521 125.1062674 9.97174644 125.10985374 C8.15574783 125.1147121 6.33975376 125.1263046 4.52384377 125.14489174 C1.97492696 125.16935544 -0.57282683 125.16830505 -3.12182617 125.16137695 C-3.86446213 125.17418701 -4.60709808 125.18699707 -5.37223816 125.20019531 C-10.84506479 125.14629413 -15.00428672 123.67763677 -19.6015625 120.69140625 C-25.43132152 114.297477 -23.75052306 102.14476512 -23.734375 94.03125 C-23.73533173 92.96016495 -23.73628845 91.8890799 -23.73727417 90.78553772 C-23.73795001 88.5426528 -23.73613768 86.29976585 -23.73193359 84.05688477 C-23.72652902 80.60754092 -23.73192302 77.15832448 -23.73828125 73.70898438 C-23.73762129 71.52473929 -23.73634185 69.34049429 -23.734375 67.15625 C-23.73639923 66.12096664 -23.73842346 65.08568329 -23.74050903 64.01902771 C-23.73735687 63.07036331 -23.73420471 62.12169891 -23.73095703 61.14428711 C-23.73016144 60.30619003 -23.72936584 59.46809296 -23.72854614 58.604599 C-23.6015625 56.69140625 -23.6015625 56.69140625 -22.6015625 55.69140625 C-20.93727199 55.59316688 -19.26874319 55.56166994 -17.6015625 55.56640625 C-16.2403125 55.56253906 -16.2403125 55.56253906 -14.8515625 55.55859375 C-12.6015625 55.69140625 -12.6015625 55.69140625 -11.6015625 56.69140625 C-11.48909659 58.33759092 -11.44479434 59.98849144 -11.42797852 61.63842773 C-11.41448868 62.69299667 -11.40099884 63.74756561 -11.38710022 64.83409119 C-11.37666183 65.98196609 -11.36622345 67.129841 -11.35546875 68.3125 C-11.32253623 70.71549852 -11.28932449 73.11849322 -11.25585938 75.52148438 C-11.20836112 79.3314353 -11.16393434 83.14137009 -11.12475586 86.95141602 C-11.08518379 90.61360984 -11.03360629 94.27548151 -10.98046875 97.9375 C-10.9720546 99.08335068 -10.96364044 100.22920135 -10.95497131 101.40977478 C-10.93832932 102.46749588 -10.92168732 103.52521698 -10.90454102 104.61499023 C-10.89423355 105.54907211 -10.88392609 106.48315399 -10.87330627 107.44554138 C-10.81154495 109.89278927 -10.81154495 109.89278927 -8.6015625 111.69140625 C-6.142811 111.88437304 -3.7972242 111.95380024 -1.33789062 111.93432617 C-0.58978622 111.93622452 0.15831818 111.93812286 0.92909241 111.94007874 C3.40856314 111.94379149 5.88774268 111.93307526 8.3671875 111.921875 C10.08589646 111.92068335 11.80460608 111.92023001 13.52331543 111.92048645 C17.12805245 111.91892071 20.73269028 111.91062428 24.33740234 111.8972168 C28.96467512 111.88022683 33.59183879 111.87640241 38.2191391 111.87716198 C41.76895189 111.87689041 45.3187407 111.87141137 48.86854553 111.86416054 C50.57503579 111.86097193 52.28152877 111.85900602 53.98802185 111.85826683 C56.37031714 111.8561053 58.75249537 111.84736512 61.13476562 111.83666992 C61.84443985 111.83712311 62.55411407 111.83757629 63.28529358 111.83804321 C66.96561104 111.86171588 66.96561104 111.86171588 70.3984375 110.69140625 C70.7284375 90.56140625 71.0584375 70.43140625 71.3984375 49.69140625 C64.1384375 49.69140625 56.8784375 49.69140625 49.3984375 49.69140625 C40.04394015 46.18346974 40.04394015 46.18346974 37.3984375 42.69140625 C35.72874725 37.5265544 35.98714304 31.940472 35.7734375 26.56640625 C35.721875 25.45652344 35.6703125 24.34664062 35.6171875 23.203125 C35.57335937 22.14480469 35.52953125 21.08648437 35.484375 19.99609375 C35.4436084 19.02655762 35.4028418 18.05702148 35.36083984 17.05810547 C35.3984375 14.69140625 35.3984375 14.69140625 36.3984375 12.69140625 C35.4084375 13.02140625 34.4184375 13.35140625 33.3984375 13.69140625 C32.01200115 13.76285418 30.62224312 13.77865267 29.23413086 13.75732422 C28.39994125 13.74756561 27.56575165 13.73780701 26.70628357 13.72775269 C25.8093428 13.71318024 24.91240204 13.69860779 23.98828125 13.68359375 C22.09310425 13.666084 20.19792162 13.6491751 18.30273438 13.6328125 C15.31128498 13.60177729 12.32011415 13.56616216 9.32885742 13.52001953 C6.44446244 13.47783546 3.56039939 13.45428805 0.67578125 13.43359375 C-0.22318375 13.41497284 -1.12214874 13.39635193 -2.0483551 13.37716675 C-3.29491127 13.37198532 -3.29491127 13.37198532 -4.56665039 13.36669922 C-5.29928604 13.35702118 -6.03192169 13.34734314 -6.78675842 13.33737183 C-7.38564377 13.45420319 -7.98452911 13.57103455 -8.6015625 13.69140625 C-10.63222081 16.73739372 -10.89638654 17.81953306 -11.1640625 21.31640625 C-11.50314422 25.59298797 -11.50314422 25.59298797 -12.6015625 26.69140625 C-14.28765216 26.76346136 -15.97656909 26.77526693 -17.6640625 26.75390625 C-18.58316406 26.74488281 -19.50226563 26.73585938 -20.44921875 26.7265625 C-21.15949219 26.71496094 -21.86976563 26.70335938 -22.6015625 26.69140625 C-24.3244805 19.5843695 -24.27387493 13.09480657 -20.6015625 6.69140625 C-14.67718798 0.09494793 -8.44406237 -0.15925946 0 0 Z M48.3984375 22.69140625 C48.3984375 27.31140625 48.3984375 31.93140625 48.3984375 36.69140625 C52.13818182 38.56127841 56.86634578 37.99782459 60.8984375 37.19140625 C61.3934375 37.02640625 61.8884375 36.86140625 62.3984375 36.69140625 C61.14964659 32.94503352 59.24048643 31.40126686 56.3984375 28.69140625 C55.315625 27.54671875 55.315625 27.54671875 54.2109375 26.37890625 C52.56721477 24.46426674 52.56721477 24.46426674 50.3984375 24.69140625 C50.3984375 24.03140625 50.3984375 23.37140625 50.3984375 22.69140625 C49.7384375 22.69140625 49.0784375 22.69140625 48.3984375 22.69140625 Z " fill="#FAFAF8" transform="translate(155.6015625,54.30859375)"/>
<path d="M0 0 C0.99 0.33 1.98 0.66 3 1 C3 1.66 3 2.32 3 3 C3.65355469 3.20367187 4.30710937 3.40734375 4.98046875 3.6171875 C9.20563066 5.55212581 12.6433268 8.29852341 16.3125 11.125 C17.42334961 11.96998047 17.42334961 11.96998047 18.55664062 12.83203125 C20.37501609 14.21634289 22.18924674 15.60574226 24 17 C23.39372323 20.54857123 23.04780674 20.96048821 20.05078125 23.4375 C18.81244524 24.30287522 17.56596622 25.1566894 16.3125 26 C15.69955078 26.42539063 15.08660156 26.85078125 14.45507812 27.2890625 C13.2358572 28.13204452 12.01159995 28.96779252 10.78222656 29.79589844 C9.60889133 30.58862301 8.44381752 31.39373785 7.28808594 32.21191406 C3.26063444 35.0274352 3.26063444 35.0274352 0.625 34.75 C0.08875 34.5025 -0.4475 34.255 -1 34 C-1 31.36 -1 28.72 -1 26 C-4.33325754 25.94125224 -7.66637938 25.90615533 -11 25.875 C-12.40185547 25.84986328 -12.40185547 25.84986328 -13.83203125 25.82421875 C-22.89876756 25.760815 -30.87947646 26.97266887 -38 33 C-42.07770177 37.58506558 -44.18853524 42.26636806 -45.875 48.125 C-47.50656353 53.46342125 -49.64878283 56.33894391 -53.90234375 59.890625 C-56.42941667 61.22710304 -58.18096052 61.2157178 -61 61 C-61.39054314 45.94239233 -60.37646271 35.24836218 -49.8984375 23.6796875 C-48 22 -48 22 -46 22 C-46 21.34 -46 20.68 -46 20 C-44.68 19.67 -43.36 19.34 -42 19 C-42 18.34 -42 17.68 -42 17 C-32.15600691 11.53111495 -23.02299018 10.69061848 -11.875 10.875 C-10.2971875 10.88853516 -10.2971875 10.88853516 -8.6875 10.90234375 C-6.12475122 10.92564147 -3.56250488 10.95834888 -1 11 C-1.01160156 10.28972656 -1.02320313 9.57945313 -1.03515625 8.84765625 C-1.04417969 7.92855469 -1.05320313 7.00945312 -1.0625 6.0625 C-1.07410156 5.14597656 -1.08570313 4.22945313 -1.09765625 3.28515625 C-1 1 -1 1 0 0 Z " fill="#FAFAF9" transform="translate(151,77)"/>
<path d="M0 0 C0.71671875 -0.020625 1.4334375 -0.04125 2.171875 -0.0625 C6.74410382 -0.09611933 9.57587061 0.5016355 13.25 3.25 C13.91 2.26 14.57 1.27 15.25 0.25 C18.296875 -0.1484375 18.296875 -0.1484375 22 -0.125 C23.21171875 -0.13273437 24.4234375 -0.14046875 25.671875 -0.1484375 C30.84447635 0.42755086 34.84044005 2.27218005 38.25 6.25 C38.91 4.27 39.57 2.29 40.25 0.25 C43.06256281 0.22315688 45.87487241 0.20323812 48.6875 0.1875 C49.89116211 0.17493164 49.89116211 0.17493164 51.11914062 0.16210938 C53.16295221 0.1534857 55.20683902 0.1977185 57.25 0.25 C58.25 1.25 58.25 1.25 58.3125 3.8125 C58.291875 4.616875 58.27125 5.42125 58.25 6.25 C55.15521121 7.28159626 53.72368607 7.22482862 50.5625 6.8125 C49.75425781 6.71066406 48.94601563 6.60882813 48.11328125 6.50390625 C47.49839844 6.42011719 46.88351563 6.33632812 46.25 6.25 C46.745 8.23 46.745 8.23 47.25 10.25 C47.88808594 10.16621094 48.52617187 10.08242187 49.18359375 9.99609375 C50.00988281 9.89425781 50.83617187 9.79242188 51.6875 9.6875 C52.92306641 9.53087891 52.92306641 9.53087891 54.18359375 9.37109375 C55.20646484 9.31115234 55.20646484 9.31115234 56.25 9.25 C57.25 10.25 57.25 10.25 57.3125 13.3125 C57.291875 14.281875 57.27125 15.25125 57.25 16.25 C53.95 16.25 50.65 16.25 47.25 16.25 C47.25 18.56 47.25 20.87 47.25 23.25 C44.92696824 24.74337756 43.8193469 25.36386938 41.0625 24.8125 C39.25 23.25 39.25 23.25 38.5 19.625 C38.4175 18.51125 38.335 17.3975 38.25 16.25 C37.734375 17.178125 37.21875 18.10625 36.6875 19.0625 C34.73857596 21.90833373 32.77154893 23.61483826 29.46484375 24.859375 C24.74660795 25.69151535 19.95921987 24.89181486 15.25 24.25 C14.29207023 20.61147686 13.75199198 16.97908331 13.25 13.25 C12.610625 14.075 11.97125 14.9 11.3125 15.75 C7.22615535 19.08579155 4.32127064 18.7471834 -0.75 18.25 C-0.729375 19.054375 -0.70875 19.85875 -0.6875 20.6875 C-0.75 23.25 -0.75 23.25 -1.75 24.25 C-3.74958364 24.29080783 -5.75045254 24.29254356 -7.75 24.25 C-8.96611807 19.50134847 -8.89816693 14.86505567 -8.875 10 C-8.87886719 9.17242187 -8.88273438 8.34484375 -8.88671875 7.4921875 C-8.8735515 -0.53983442 -7.39954845 0.0521095 0 0 Z M-0.75 7.25 C-0.75 8.57 -0.75 9.89 -0.75 11.25 C0.9 11.25 2.55 11.25 4.25 11.25 C4.58 9.93 4.91 8.61 5.25 7.25 C2.20086772 6.23888907 2.20086772 6.23888907 -0.75 7.25 Z M22.25 6.25 C22.25 10.21 22.25 14.17 22.25 18.25 C27.05187623 18.07647276 27.05187623 18.07647276 30.875 15.5625 C31.46247821 11.93971769 30.33746897 10.18550324 28.25 7.25 C25.16038542 6.27525184 25.16038542 6.27525184 22.25 6.25 Z " fill="#F9FAFA" transform="translate(160.75,119.75)"/>
<path d="M0 0 C0.33 2.64 0.66 5.28 1 8 C1.81984375 8.19335938 2.6396875 8.38671875 3.484375 8.5859375 C4.56203125 8.84632812 5.6396875 9.10671875 6.75 9.375 C7.81734375 9.63023438 8.8846875 9.88546875 9.984375 10.1484375 C12.55852722 10.87533541 14.67600186 11.7026224 17 13 C16.45912682 16.78611227 14.88277668 18.55400767 12 21 C11.34 21 10.68 21 10 21 C9.34 22.32 8.68 23.64 8 25 C5.69 25 3.38 25 1 25 C0.67 27.64 0.34 30.28 0 33 C-5.58443967 32.56584387 -8.69502543 30.47262797 -13 27.1875 C-14.18686053 26.3051288 -15.37435483 25.42360939 -16.5625 24.54296875 C-17.13226563 24.11677246 -17.70203125 23.69057617 -18.2890625 23.25146484 C-20.80358707 21.41221642 -23.39290838 19.70494254 -26 18 C-25.64058074 15.34143851 -25.30755956 14.2570848 -23.21484375 12.5078125 C-22.46332031 12.05148438 -21.71179688 11.59515625 -20.9375 11.125 C-17.76516721 9.13283553 -14.72200691 7.09386911 -11.75 4.8125 C-3.7327678 -1.24425593 -3.7327678 -1.24425593 0 0 Z " fill="#F8F8F8" transform="translate(86,79)"/>
<path d="M0 0 C11.03423198 0.752334 20.43344307 6.36351655 29 13 C29.825 13.61101563 30.65 14.22203125 31.5 14.8515625 C39.78918651 21.97508216 46.40268196 32.39428466 49 43 C47.05663221 44.94336779 43.7079005 44.30633393 41.125 44.375 C39.86945313 44.42398438 38.61390625 44.47296875 37.3203125 44.5234375 C34 44 34 44 32.16796875 41.65625 C31.78253906 40.7796875 31.39710938 39.903125 31 39 C22.66987524 25.78669865 12.22757358 18.10388508 -3 14 C-3 13.34 -3 12.68 -3 12 C3.9857164 12.38809536 8.94762003 14.57448765 15 18 C15.73863281 18.41765625 16.47726563 18.8353125 17.23828125 19.265625 C21.41665603 21.75219078 24.71952964 24.41198555 28 28 C29.32 27.34 30.64 26.68 32 26 C32 24.35 32 22.7 32 21 C31.34 20.67 30.68 20.34 30 20 C29.505 18.515 29.505 18.515 29 17 C21.49308095 10.13391551 13.40561389 6.60422328 3.6953125 4.02734375 C2.80585938 3.68832031 1.91640625 3.34929688 1 3 C0.67 2.01 0.34 1.02 0 0 Z " fill="#F8F8F7" transform="translate(136,4)"/>
<path d="M0 0 C4.17443363 3.50074982 8.3145494 6.97950843 12 11 C12 11.66 12 12.32 12 13 C8.04322598 11.32598022 5.15535787 8.86850715 2 6 C2 5.34 2 4.68 2 4 C1.34 4 0.68 4 0 4 C0 8.62 0 13.24 0 18 C4.62 18 9.24 18 14 18 C13.34 16.68 12.68 15.36 12 14 C12.99 13.67 13.98 13.34 15 13 C16.65 14.65 18.3 16.3 20 18 C19.67 18.99 19.34 19.98 19 21 C14.95671587 22.07028109 12.08453114 21.72079961 8 21 C6.62435175 21.07184237 5.24928877 21.15566107 3.875 21.25 C0 21 0 21 -2.24609375 18.93359375 C-4.46921198 15.21519332 -4.32981581 13.09189888 -3.9375 8.8125 C-3.84339844 7.58144531 -3.74929687 6.35039063 -3.65234375 5.08203125 C-3 2 -3 2 0 0 Z " fill="#F1F2F2" transform="translate(204,73)"/>
<path d="M0 0 C-6.625 3 -6.625 3 -10 3 C-10 3.66 -10 4.32 -10 5 C-10.72058594 5.268125 -11.44117188 5.53625 -12.18359375 5.8125 C-15.00032278 7.0001361 -17.46478269 8.39399239 -20.0625 10 C-22.44323481 11.467325 -24.75059426 12.88255723 -27.28125 14.07421875 C-27.8484375 14.37972656 -28.415625 14.68523438 -29 15 C-29.2165625 15.8971875 -29.2165625 15.8971875 -29.4375 16.8125 C-30.28199001 20.0966278 -32.60625648 21.66325037 -35 24 C-35.556875 24.928125 -36.11375 25.85625 -36.6875 26.8125 C-37.120625 27.534375 -37.55375 28.25625 -38 29 C-38.66 29 -39.32 29 -40 29 C-40.185625 30.0828125 -40.185625 30.0828125 -40.375 31.1875 C-41.00568316 34.02557421 -41.67074229 36.41144551 -43 39 C-45.125 40.3125 -45.125 40.3125 -47 41 C-46.41054601 36.52857047 -44.61290659 33.03188147 -42.375 29.1875 C-42.01889648 28.57092529 -41.66279297 27.95435059 -41.29589844 27.3190918 C-37.51882116 20.94213191 -33.21414953 15.18065751 -27 11 C-26.34 11 -25.68 11 -25 11 C-25 10.34 -25 9.68 -25 9 C-18.81492649 4.30417412 -7.93926938 -2.82490283 0 0 Z " fill="#E5E5E4" transform="translate(109,6)"/>
<path d="M0 0 C-2.05233685 2.2477975 -3.00667261 3.0022242 -6 4 C-6.66 4.66 -7.32 5.32 -8 6 C-8.66 5.67 -9.32 5.34 -10 5 C-10 5.66 -10 6.32 -10 7 C-11.95927063 8.7143618 -13.95880212 10.38405168 -16 12 C-14.71034824 13.37562854 -13.37310707 14.70766393 -12 16 C-11.34 16 -10.68 16 -10 16 C-9.54625 15.484375 -9.0925 14.96875 -8.625 14.4375 C-8.08875 13.963125 -7.5525 13.48875 -7 13 C-5.68 13.33 -4.36 13.66 -3 14 C-5.31 16.97 -7.62 19.94 -10 23 C-10.99 22.67 -11.98 22.34 -13 22 C-13.33 22 -13.66 22 -14 22 C-14.66 21.34 -15.32 20.68 -16 20 C-17.31747324 19.30251417 -18.64914193 18.63040043 -20 18 C-19.67 17.01 -19.34 16.02 -19 15 C-19.66 15 -20.32 15 -21 15 C-21.33 15.99 -21.66 16.98 -22 18 C-22.3125 15.8125 -22.3125 15.8125 -22 13 C-19.625 10.1875 -19.625 10.1875 -17 8 C-16.34 8 -15.68 8 -15 8 C-15 7.34 -15 6.68 -15 6 C-13.68 5.67 -12.36 5.34 -11 5 C-11 4.34 -11 3.68 -11 3 C-9.73581754 2.30034557 -8.46334598 1.61565237 -7.1875 0.9375 C-6.47980469 0.55464844 -5.77210937 0.17179687 -5.04296875 -0.22265625 C-3 -1 -3 -1 0 0 Z " fill="#F6F6F5" transform="translate(120,91)"/>
<path d="M0 0 C0.99 0.33 1.98 0.66 3 1 C3 1.66 3 2.32 3 3 C3.66 3 4.32 3 5 3 C5.33 2.34 5.66 1.68 6 1 C6.99 2.98 7.98 4.96 9 7 C8.67 7.33 8.34 7.66 8 8 C8.66 8.33 9.32 8.66 10 9 C10.33 8.34 10.66 7.68 11 7 C11.061875 7.7425 11.12375 8.485 11.1875 9.25 C12.53425952 13.80826298 16.19153212 15.46102141 20 18 C20.86625 18.165 21.7325 18.33 22.625 18.5 C23.40875 18.665 24.1925 18.83 25 19 C25.33 19.66 25.66 20.32 26 21 C28.57437581 21.91280138 28.57437581 21.91280138 31.5625 22.625 C32.57441406 22.88539063 33.58632813 23.14578125 34.62890625 23.4140625 C35.41136719 23.60742188 36.19382813 23.80078125 37 24 C35 26 35 26 31.6875 26.0625 C19.55291293 24.20245381 9.28788077 15.41541344 2.1640625 5.9296875 C0.96677859 3.94492827 0.43294549 2.26541244 0 0 Z " fill="#EBEBEB" transform="translate(17,131)"/>
<path d="M0 0 C0.33 0 0.66 0 1 0 C1 20.46 1 40.92 1 62 C0.01 61.67 -0.98 61.34 -2 61 C-2.04629168 53.34192785 -2.08185303 45.68387016 -2.10362434 38.02569008 C-2.11407224 34.46987601 -2.12824959 30.9141575 -2.15087891 27.35839844 C-2.17671832 23.272777 -2.18646444 19.18725631 -2.1953125 15.1015625 C-2.20563507 13.82133209 -2.21595764 12.54110168 -2.22659302 11.22207642 C-2.22674408 10.04100311 -2.22689514 8.85992981 -2.22705078 7.64306641 C-2.231492 6.59937897 -2.23593323 5.55569153 -2.24050903 4.4803772 C-2 2 -2 2 0 0 Z " fill="#FEFEFC" transform="translate(238,98)"/>
<path d="M0 0 C4.80172134 1.10808954 7.91161335 2.04686508 11 6 C11 6.66 11 7.32 11 8 C11.88171875 8.40798828 11.88171875 8.40798828 12.78125 8.82421875 C18.2288212 11.71104785 22.28082627 16.16507416 26 21 C28.30191042 23.36585238 30.64521741 25.67007907 33.0625 27.91796875 C33.784375 28.60503906 34.50625 29.29210937 35.25 30 C35.93578125 30.639375 36.6215625 31.27875 37.328125 31.9375 C39.24783682 34.30574262 39.64650208 36.00566464 40 39 C39.34 39 38.68 39 38 39 C36.4140625 37.171875 36.4140625 37.171875 34.625 34.75 C32.77366797 32.2543718 31.00076123 30.00074253 28.7734375 27.828125 C27 26 27 26 27 24 C26.41089844 23.91234375 25.82179687 23.8246875 25.21484375 23.734375 C22.40488548 22.80267808 21.4199374 21.53211708 19.5625 19.25 C18.9540625 18.52425781 18.345625 17.79851562 17.71875 17.05078125 C16.86796875 16.03564453 16.86796875 16.03564453 16 15 C8.90336875 7.17613211 8.90336875 7.17613211 0 2 C0 1.34 0 0.68 0 0 Z " fill="#D5D5D5" transform="translate(197,56)"/>
<path d="M0 0 C0 0.99 0 1.98 0 3 C-1.4609375 4.38671875 -1.4609375 4.38671875 -3.375 5.6875 C-4.31472656 6.34298828 -4.31472656 6.34298828 -5.2734375 7.01171875 C-7 8 -7 8 -9 8 C-9 8.66 -9 9.32 -9 10 C-10.375 11.625 -10.375 11.625 -12 13 C-12.66 13 -13.32 13 -14 13 C-14.309375 13.61875 -14.61875 14.2375 -14.9375 14.875 C-15.625 16.25 -16.3125 17.625 -17 19 C-17.66 19 -18.32 19 -19 19 C-19.18175781 19.556875 -19.36351563 20.11375 -19.55078125 20.6875 C-21.24862185 25.84196991 -23.06422235 30.93010615 -25 36 C-25.66 36 -26.32 36 -27 36 C-26.57559559 29.49246573 -24.10850675 24.66845348 -21 19 C-20.484375 18.030625 -19.96875 17.06125 -19.4375 16.0625 C-17.86901111 13.81205942 -16.18749938 12.62298341 -14 11 C-13.71125 10.319375 -13.4225 9.63875 -13.125 8.9375 C-11.45439299 6.06034348 -9.07204511 5.98043993 -6 5 C-5.67 4.01 -5.34 3.02 -5 2 C-2 0 -2 0 0 0 Z " fill="#DEDEDE" transform="translate(99,21)"/>
<path d="M0 0 C6.99320729 0.38851152 11.93597525 2.58596373 18 6 C18.71542969 6.38285156 19.43085938 6.76570313 20.16796875 7.16015625 C25.88320475 10.4212677 31.02003152 15.04006303 34 21 C33.34 21.66 32.68 22.32 32 23 C31.56171875 22.443125 31.1234375 21.88625 30.671875 21.3125 C22.29781262 11.23639242 12.60580694 5.39730967 0 2 C0 1.34 0 0.68 0 0 Z " fill="#E5E5E3" transform="translate(133,16)"/>
<path d="M0 0 C2.475 1.485 2.475 1.485 5 3 C4.39372323 6.54857123 4.04780674 6.96048821 1.05078125 9.4375 C-0.18755476 10.30287522 -1.43403378 11.1566894 -2.6875 12 C-3.30044922 12.42539063 -3.91339844 12.85078125 -4.54492188 13.2890625 C-5.7641428 14.13204452 -6.98840005 14.96779252 -8.21777344 15.79589844 C-9.39110867 16.58862301 -10.55618248 17.39373785 -11.71191406 18.21191406 C-15.73936556 21.0274352 -15.73936556 21.0274352 -18.375 20.75 C-18.91125 20.5025 -19.4475 20.255 -20 20 C-20 19.34 -20 18.68 -20 18 C-19.27941406 17.91234375 -18.55882812 17.8246875 -17.81640625 17.734375 C-14.44321481 16.85481884 -12.62179919 15.45718264 -9.9375 13.25 C-9.10089844 12.57453125 -8.26429688 11.8990625 -7.40234375 11.203125 C-3.8503525 7.94568912 -0.72668665 4.90513487 0 0 Z " fill="#F0EFF1" transform="translate(170,91)"/>
<path d="M0 0 C3.31248187 -0.02888146 6.62493167 -0.04675799 9.9375 -0.0625 C10.88302734 -0.07087891 11.82855469 -0.07925781 12.80273438 -0.08789062 C14.15141602 -0.09272461 14.15141602 -0.09272461 15.52734375 -0.09765625 C16.77632446 -0.10551147 16.77632446 -0.10551147 18.05053711 -0.11352539 C20 0 20 0 21 1 C21.08748207 2.92667507 21.10697334 4.85651861 21.09765625 6.78515625 C21.09443359 7.95498047 21.09121094 9.12480469 21.08789062 10.33007812 C21.07951172 11.56177734 21.07113281 12.79347656 21.0625 14.0625 C21.05798828 15.29806641 21.05347656 16.53363281 21.04882812 17.80664062 C21.03699608 20.87114117 21.02051173 23.93554721 21 27 C20.34 27.33 19.68 27.66 19 28 C18.80374901 24.04204914 18.61948018 20.08363065 18.4375 16.125 C18.38142578 14.99707031 18.32535156 13.86914062 18.26757812 12.70703125 C18.19506836 11.09248047 18.19506836 11.09248047 18.12109375 9.4453125 C18.0739624 8.45031738 18.02683105 7.45532227 17.97827148 6.43017578 C18 4 18 4 19 2 C18.01 2.33 17.02 2.66 16 3 C13.25392224 2.91232913 10.54908492 2.77043265 7.8125 2.5625 C7.06291016 2.51029297 6.31332031 2.45808594 5.54101562 2.40429688 C3.69362918 2.27486216 1.84675629 2.13813482 0 2 C0 1.34 0 0.68 0 0 Z " fill="#F2F2F2" transform="translate(173,65)"/>
<path d="M0 0 C11.62330362 0.79249797 22.22227875 6.95218719 30.77734375 14.5859375 C32 16 32 16 32 18 C28.15456079 16.75588731 25.62166348 14.91054722 22.57421875 12.29296875 C16.86597547 7.6045605 10.74312494 5.897663 3.6953125 4.02734375 C2.80585938 3.68832031 1.91640625 3.34929688 1 3 C0.67 2.01 0.34 1.02 0 0 Z " fill="#E1E1E1" transform="translate(136,4)"/>
<path d="M0 0 C0 0.66 0 1.32 0 2 C-1.45537568 2.83848804 -2.91440373 3.67063934 -4.375 4.5 C-5.18710937 4.9640625 -5.99921875 5.428125 -6.8359375 5.90625 C-9 7 -9 7 -11 7 C-11 7.66 -11 8.32 -11 9 C-12.94127845 10.58011037 -14.98976439 11.9535663 -17.0546875 13.3671875 C-19.13977131 15.11731808 -19.86968643 16.56626176 -21 19 C-21.66 19.33 -22.32 19.66 -23 20 C-24.0409066 21.64142963 -25.04504326 23.30712215 -26 25 C-26.66 24.67 -27.32 24.34 -28 24 C-25.57095756 18.07920906 -21.61327967 13.40759204 -17 9 C-16.34 9 -15.68 9 -15 9 C-15 8.34 -15 7.68 -15 7 C-12.48046875 5.2734375 -12.48046875 5.2734375 -9.1875 3.375 C-8.10855469 2.74335937 -7.02960937 2.11171875 -5.91796875 1.4609375 C-3 0 -3 0 0 0 Z " fill="#C6C6C5" transform="translate(44,58)"/>
<path d="M0 0 C4.63449692 1.62833676 4.63449692 1.62833676 6.390625 3.4140625 C12.66723281 9.5992634 21.60482598 11.03354526 30 12 C29.67 12.66 29.34 13.32 29 14 C18.48415375 15.11782618 10.53934242 11.70992192 2.25 5.3125 C0 3 0 3 0 0 Z " fill="#E5E6E4" transform="translate(33,132)"/>
<path d="M0 0 C0 0.66 0 1.32 0 2 C-0.7734375 2.27972656 -1.546875 2.55945313 -2.34375 2.84765625 C-13.59290318 7.17746645 -19.83769414 12.70614817 -26 23 C-26.66 22.34 -27.32 21.68 -28 21 C-22.39149019 10.58693059 -13.01431784 -0.74367531 0 0 Z " fill="#DEDEDE" transform="translate(54,68)"/>
<path d="M0 0 C0.99 0.33 1.98 0.66 3 1 C3.19573608 2.43640171 3.38127816 3.87419504 3.5625 5.3125 C3.66691406 6.11300781 3.77132812 6.91351563 3.87890625 7.73828125 C4 10 4 10 3 13 C2.34 13.66 1.68 14.32 1 15 C0.731875 14.38125 0.46375 13.7625 0.1875 13.125 C-0.95556848 10.7004767 -0.95556848 10.7004767 -4 9 C-4.99 9.495 -4.99 9.495 -6 10 C-5.58578031 5.16743695 -3.53586014 3.17320782 0 0 Z M-2 6 C-2 6.99 -2 7.98 -2 9 C-1.34 8.67 -0.68 8.34 0 8 C-0.66 7.34 -1.32 6.68 -2 6 Z " fill="#F3F3F2" transform="translate(119,109)"/>
<path d="M0 0 C-6.625 3 -6.625 3 -10 3 C-10 3.66 -10 4.32 -10 5 C-11.08087891 5.4021875 -11.08087891 5.4021875 -12.18359375 5.8125 C-15.00032278 7.0001361 -17.46478269 8.39399239 -20.0625 10 C-22.99172403 11.80537691 -25.8974432 13.50962629 -29 15 C-28.34 13.68 -27.68 12.36 -27 11 C-26.34 11 -25.68 11 -25 11 C-25 10.34 -25 9.68 -25 9 C-18.81492649 4.30417412 -7.93926938 -2.82490283 0 0 Z " fill="#D9D9D8" transform="translate(109,6)"/>
<path d="M0 0 C1.97039983 2.73666643 2.00370811 3.9713946 1.5625 7.375 C-0.3162268 11.73364618 -2.80676245 14.68391333 -7 17 C-7.99 16.67 -8.98 16.34 -10 16 C-9.34 15.34 -8.68 14.68 -8 14 C-7.01 14 -6.02 14 -5 14 C-3.98888907 10.95086772 -3.98888907 10.95086772 -5 8 C-4.06553465 5.96855359 -3.06775224 3.96466413 -2 2 C-1.34 2 -0.68 2 0 2 C0 1.34 0 0.68 0 0 Z " fill="#F4F4F3" transform="translate(237,161)"/>
<path d="M0 0 C0.99 0.33 1.98 0.66 3 1 C3 1.66 3 2.32 3 3 C3.66 3 4.32 3 5 3 C5.33 2.34 5.66 1.68 6 1 C6.99 2.98 7.98 4.96 9 7 C8.67 7.33 8.34 7.66 8 8 C8.66 8.33 9.32 8.66 10 9 C10.33 8.34 10.66 7.68 11 7 C11.59732819 9.76264289 12 12.16032769 12 15 C8.43903909 13.5378836 6.63829761 11.6621587 4.3125 8.625 C3.71050781 7.85414063 3.10851562 7.08328125 2.48828125 6.2890625 C1.0764113 4.11752499 0.43308159 2.52919648 0 0 Z " fill="#F1F1F0" transform="translate(17,131)"/>
<path d="M0 0 C0.33 0 0.66 0 1 0 C1.25 5.625 1.25 5.625 -1 9 C-3.75711269 9.54501065 -6.34152546 9.92549765 -9.125 10.1875 C-9.87910156 10.26935547 -10.63320313 10.35121094 -11.41015625 10.43554688 C-13.27216607 10.6358897 -15.13595811 10.81954036 -17 11 C-16.67 10.01 -16.34 9.02 -16 8 C-14.4176994 7.66179834 -12.83410625 7.32964061 -11.25 7 C-10.36828125 6.814375 -9.4865625 6.62875 -8.578125 6.4375 C-6 6 -6 6 -2 6 C-1.855625 5.195625 -1.71125 4.39125 -1.5625 3.5625 C-1 1 -1 1 0 0 Z " fill="#DDDDDD" transform="translate(62,48)"/>
<path d="M0 0 C0.66 0 1.32 0 2 0 C1.31868229 4.59889453 -1.20685636 7.53506569 -4.75 10.4296875 C-9.59110169 14 -9.59110169 14 -12 14 C-12 13.01 -12 12.02 -12 11 C-11.34 10.67 -10.68 10.34 -10 10 C-10 9.01 -10 8.02 -10 7 C-9.34 6.67 -8.68 6.34 -8 6 C-7.67 6.99 -7.34 7.98 -7 9 C-6.67 7.68 -6.34 6.36 -6 5 C-5.34 5 -4.68 5 -4 5 C-3.67 4.34 -3.34 3.68 -3 3 C-2.34 3 -1.68 3 -1 3 C-0.67 2.01 -0.34 1.02 0 0 Z " fill="#F1F1F1" transform="translate(117,139)"/>
<path d="M0 0 C-2.02714942 2.50412575 -3.48091183 3.19405214 -6.5625 4.4375 C-10.30046865 6.13657666 -10.47232032 6.50816073 -12 10 C-14.625 11.75 -14.625 11.75 -17 13 C-16.58311525 8.13634454 -14.58780535 6.17061868 -11 3 C-10.071875 2.1028125 -10.071875 2.1028125 -9.125 1.1875 C-6.07090216 -0.51920173 -3.42890816 -0.19782162 0 0 Z " fill="#D9D9D7" transform="translate(150,55)"/>
<path d="M0 0 C6.8812347 2.9215587 10.72486274 10.5756923 14 17 C14 17.99 14 18.98 14 20 C13.01 19.67 12.02 19.34 11 19 C9.96514123 16.68191636 8.9644586 14.34824702 8 12 C7.34 11.67 6.68 11.34 6 11 C3 5.57692308 3 5.57692308 3 3 C2.34 3 1.68 3 1 3 C0.67 2.01 0.34 1.02 0 0 Z " fill="#D9D9D9" transform="translate(169,23)"/>
<path d="M0 0 C0.99 0 1.98 0 3 0 C3.66 1.98 4.32 3.96 5 6 C6.6256807 5.69106068 8.25052748 5.3777305 9.875 5.0625 C11.23238281 4.80146484 11.23238281 4.80146484 12.6171875 4.53515625 C14.99956317 4.10036299 14.99956317 4.10036299 17 3 C17.33 3.99 17.66 4.98 18 6 C16.05663221 7.94336779 12.7079005 7.30633393 10.125 7.375 C8.24167969 7.44847656 8.24167969 7.44847656 6.3203125 7.5234375 C3 7 3 7 1.0546875 4.6015625 C0 2 0 2 0 0 Z " fill="#EBEBEA" transform="translate(167,41)"/>
<path d="M0 0 C0.99 0.33 1.98 0.66 3 1 C3 2.98 3 4.96 3 7 C1.35 6.01 -0.3 5.02 -2 4 C-2 4.66 -2 5.32 -2 6 C-3.32 6.33 -4.64 6.66 -6 7 C-6 7.66 -6 8.32 -6 9 C-7.32 9.33 -8.64 9.66 -10 10 C-10 9.01 -10 8.02 -10 7 C-6.95845991 4.21916335 -3.68902018 1.84451009 0 0 Z " fill="#EBEBED" transform="translate(83,78)"/>
<path d="M0 0 C-2.05233685 2.2477975 -3.00667261 3.0022242 -6 4 C-6.66 4.66 -7.32 5.32 -8 6 C-8.66 5.67 -9.32 5.34 -10 5 C-10 5.66 -10 6.32 -10 7 C-12.5 8.625 -12.5 8.625 -15 10 C-15.66 9.34 -16.32 8.68 -17 8 C-16.34 8 -15.68 8 -15 8 C-15 7.34 -15 6.68 -15 6 C-13.68 5.67 -12.36 5.34 -11 5 C-11 4.34 -11 3.68 -11 3 C-9.73581754 2.30034557 -8.46334598 1.61565237 -7.1875 0.9375 C-6.47980469 0.55464844 -5.77210937 0.17179687 -5.04296875 -0.22265625 C-3 -1 -3 -1 0 0 Z " fill="#E9E9E9" transform="translate(120,91)"/>
<path d="M0 0 C1.98841412 2.98262118 3.53671732 5.97640675 5.125 9.1875 C5.66382813 10.27417969 6.20265625 11.36085938 6.7578125 12.48046875 C7.16773438 13.31191406 7.57765625 14.14335937 8 15 C6.13671875 14.734375 6.13671875 14.734375 4 14 C1.27655223 10.29956938 -0.58416131 5.57422564 -1 1 C-0.67 0.67 -0.34 0.34 0 0 Z " fill="#ECECEB" transform="translate(25,116)"/>
<path d="M0 0 C2 1 2 1 4.3125 3.4375 C6.91969794 5.92343292 8.63405773 6.90834305 12 8 C14 9 14 9 15 11 C9.91087016 10.33791903 6.02679774 9.78036629 1.875 6.625 C0 4 0 4 0 0 Z " fill="#EBEBE8" transform="translate(193,93)"/>
<path d="M0 0 C0.99 0.66 1.98 1.32 3 2 C2.25 8.75 2.25 8.75 0 11 C-0.99 10.67 -1.98 10.34 -3 10 C-2.649375 9.4225 -2.29875 8.845 -1.9375 8.25 C-0.82843626 5.58824702 -1.28197722 4.69258542 -2 2 C-1.34 1.34 -0.68 0.68 0 0 Z " fill="#F2F2F2" transform="translate(195,131)"/>
<path d="M0 0 C0.99 0.33 1.98 0.66 3 1 C3 1.66 3 2.32 3 3 C3.7425 3.268125 4.485 3.53625 5.25 3.8125 C7.89061949 4.95276751 9.85552844 6.09380306 12 8 C12 8.66 12 9.32 12 10 C10.35 9.67 8.7 9.34 7 9 C7 8.34 7 7.68 7 7 C6.21625 6.773125 5.4325 6.54625 4.625 6.3125 C2 5 2 5 0.6875 2.375 C0.460625 1.59125 0.23375 0.8075 0 0 Z " fill="#F2F2F2" transform="translate(151,77)"/>
<path d="M0 0 C0.33 0 0.66 0 1 0 C2.28571429 8.57142857 2.28571429 8.57142857 1 12 C0.01 12 -0.98 12 -2 12 C-3.34899329 5.74557657 -3.34899329 5.74557657 -1.625 2.0625 C-1.08875 1.381875 -0.5525 0.70125 0 0 Z " fill="#F2F2F1" transform="translate(13,107)"/>
<path d="M0 0 C4.80172134 1.10808954 7.91161335 2.04686508 11 6 C11 6.66 11 7.32 11 8 C11.66 8 12.32 8 13 8 C13 8.66 13 9.32 13 10 C10.17462936 8.80465088 8.32924926 7.43875959 5.9375 5.4375 C3.19794312 2.86462201 3.19794312 2.86462201 0 2 C0 1.34 0 0.68 0 0 Z " fill="#CFCFCF" transform="translate(197,56)"/>
<path d="M0 0 C1.11761719 0.0918457 1.11761719 0.0918457 2.2578125 0.18554688 C4.08982155 0.3382143 5.92014316 0.51089754 7.75 0.6875 C7.75 1.0175 7.75 1.3475 7.75 1.6875 C-0.665 2.1825 -0.665 2.1825 -9.25 2.6875 C-9.58 3.3475 -9.91 4.0075 -10.25 4.6875 C-10.91 4.0275 -11.57 3.3675 -12.25 2.6875 C-8.56627606 -1.08347003 -4.87888257 -0.48702626 0 0 Z " fill="#F3F3F3" transform="translate(130.25,89.3125)"/>
<path d="M0 0 C0 0.66 0 1.32 0 2 C-3.96 3.98 -7.92 5.96 -12 8 C-12 7.01 -12 6.02 -12 5 C-10.56705502 4.15885829 -9.12845595 3.32734313 -7.6875 2.5 C-6.88699219 2.0359375 -6.08648437 1.571875 -5.26171875 1.09375 C-3 0 -3 0 0 0 Z " fill="#C1C1BF" transform="translate(44,58)"/>
<path d="M0 0 C0.66 0.99 1.32 1.98 2 3 C1.25 5.3125 1.25 5.3125 0 8 C-0.67795528 9.99620166 -1.34733531 11.99538701 -2 14 C-2.66 14 -3.32 14 -4 14 C-3.46148032 8.72250715 -2.22656164 4.74354436 0 0 Z " fill="#E3E3E3" transform="translate(76,43)"/>
<path d="M0 0 C2.475 0.99 2.475 0.99 5 2 C5 2.66 5 3.32 5 4 C6.32 4.66 7.64 5.32 9 6 C8.34 6.66 7.68 7.32 7 8 C1.21538462 4.55384615 1.21538462 4.55384615 0.125 1.75 C0.08375 1.1725 0.0425 0.595 0 0 Z " fill="#EAEBE8" transform="translate(134,170)"/>
<path d="M0 0 C0 1.65 0 3.3 0 5 C0.66 5 1.32 5 2 5 C2.33 5.99 2.66 6.98 3 8 C1.68 8.33 0.36 8.66 -1 9 C-1.12375 8.195625 -1.2475 7.39125 -1.375 6.5625 C-1.684375 5.2940625 -1.684375 5.2940625 -2 4 C-2.66 3.67 -3.32 3.34 -4 3 C-4 2.34 -4 1.68 -4 1 C-2 0 -2 0 0 0 Z " fill="#EFEFEF" transform="translate(170,21)"/>
<path d="M0 0 C-1.55780332 0.67756882 -3.12150096 1.34159457 -4.6875 2 C-5.55761719 2.37125 -6.42773438 2.7425 -7.32421875 3.125 C-10.0572002 4.01870488 -12.14700934 4.16449676 -15 4 C-10.61904007 0.14475527 -5.67184693 -1.74135651 0 0 Z " fill="#D8D8D6" transform="translate(109,6)"/>
<path d="M0 0 C2 0 2 0 4.625 2.5 C5.40875 3.325 6.1925 4.15 7 5 C6.67 5.99 6.34 6.98 6 8 C4.68 8 3.36 8 2 8 C1.87625 7.401875 1.7525 6.80375 1.625 6.1875 C1.04524015 3.73768652 1.04524015 3.73768652 -1 1 C-0.67 0.67 -0.34 0.34 0 0 Z " fill="#E6E6E4" transform="translate(217,86)"/>
<path d="M0 0 C4.24846075 0.47205119 6.26819288 2.88877522 9 6 C9 6.66 9 7.32 9 8 C4.7257442 6.4169423 2.73468206 3.49431596 0 0 Z " fill="#E3E3E4" transform="translate(207,78)"/>
<path d="M0 0 C0.66 0 1.32 0 2 0 C3.2890625 1.53125 3.2890625 1.53125 4.625 3.5 C5.07101563 4.1496875 5.51703125 4.799375 5.9765625 5.46875 C6.31429687 5.9740625 6.65203125 6.479375 7 7 C6.34 7.66 5.68 8.32 5 9 C0 3.375 0 3.375 0 0 Z " fill="#EDEDEB" transform="translate(160,30)"/>
<path d="M0 0 C0.66 0.33 1.32 0.66 2 1 C1.01 2.485 1.01 2.485 0 4 C-0.66 4 -1.32 4 -2 4 C-2.66 5.32 -3.32 6.64 -4 8 C-4.66 7.01 -5.32 6.02 -6 5 C-4.02 3.35 -2.04 1.7 0 0 Z " fill="#EFEFEF" transform="translate(70,87)"/>
<path d="M0 0 C4.8 3.32307692 4.8 3.32307692 5.8125 6.75 C5.874375 7.4925 5.93625 8.235 6 9 C5.34 9 4.68 9 4 9 C0 3.70588235 0 3.70588235 0 0 Z " fill="#E4E4E2" transform="translate(231,86)"/>
<path d="M0 0 C0.33 0.66 0.66 1.32 1 2 C-3.95 3.485 -3.95 3.485 -9 5 C-9 4.01 -9 3.02 -9 2 C-5.86501708 0.14223235 -3.62528568 -0.20140476 0 0 Z " fill="#F3F2F1" transform="translate(151,65)"/>
<path d="M0 0 C0.66 0.66 1.32 1.32 2 2 C-2.39453125 6.00390625 -2.39453125 6.00390625 -4 7 C-4.99 6.67 -5.98 6.34 -7 6 C-6.34 5.34 -5.68 4.68 -5 4 C-4.01 4 -3.02 4 -2 4 C-1.34 2.68 -0.68 1.36 0 0 Z " fill="#E7E7E5" transform="translate(234,171)"/>
<path d="M0 0 C0 0.66 0 1.32 0 2 C-3.3125 3.125 -3.3125 3.125 -7 4 C-7.99 3.34 -8.98 2.68 -10 2 C-6.49223216 0.39644899 -3.85645121 -0.22036864 0 0 Z " fill="#EAEAEA" transform="translate(54,68)"/>
<path d="M0 0 C-0.556875 0.268125 -1.11375 0.53625 -1.6875 0.8125 C-4.19712523 2.10122647 -6.59334236 3.52926478 -9 5 C-9.33 4.01 -9.66 3.02 -10 2 C-6.3558226 -0.4294516 -4.28758728 -0.16179575 0 0 Z " fill="#E3E3E3" transform="translate(99,10)"/>
<path d="M0 0 C0.99 0.33 1.98 0.66 3 1 C2.67 1.66 2.34 2.32 2 3 C1.34 3 0.68 3 0 3 C0 3.66 0 4.32 0 5 C-1.32 5.33 -2.64 5.66 -4 6 C-4 5.01 -4 4.02 -4 3 C-2.1875 1.25 -2.1875 1.25 0 0 Z " fill="#E4E3E5" transform="translate(77,82)"/>
<path d="M0 0 C0.33 0.66 0.66 1.32 1 2 C0.01 2.495 0.01 2.495 -1 3 C-2.0409066 4.64142963 -3.04504326 6.30712215 -4 8 C-4.66 7.67 -5.32 7.34 -6 7 C-4.6875 4.0625 -4.6875 4.0625 -3 1 C-2.01 0.67 -1.02 0.34 0 0 Z " fill="#DCDCDC" transform="translate(22,75)"/>
<path d="M0 0 C0.66 1.32 1.32 2.64 2 4 C0.35 5.32 -1.3 6.64 -3 8 C-2.45276317 4.62537285 -1.9451 2.91765 0 0 Z " fill="#E5E5E5" transform="translate(136,60)"/>
<path d="M0 0 C1.32 0.66 2.64 1.32 4 2 C3.34 2 2.68 2 2 2 C2 2.66 2 3.32 2 4 C0.35 4.33 -1.3 4.66 -3 5 C-3 4.01 -3 3.02 -3 2 C-2.01 1.34 -1.02 0.68 0 0 Z " fill="#F4F5F1" transform="translate(36,63)"/>
<path d="M0 0 C-4.455 1.485 -4.455 1.485 -9 3 C-8 0 -8 0 -6.1875 -1.3125 C-4 -2 -4 -2 0 0 Z " fill="#EDEDED" transform="translate(108,20)"/>
<path d="M0 0 C2.31 0.33 4.62 0.66 7 1 C6.01 2.485 6.01 2.485 5 4 C2.525 3.01 2.525 3.01 0 2 C0 1.34 0 0.68 0 0 Z " fill="#E9E9E9" transform="translate(136,4)"/>
<path d="M0 0 C0.66 0.66 1.32 1.32 2 2 C1.34 2 0.68 2 0 2 C0 3.32 0 4.64 0 6 C-0.99 5.67 -1.98 5.34 -3 5 C-3.33 4.01 -3.66 3.02 -4 2 C-2.68 1.34 -1.36 0.68 0 0 Z " fill="#F4F5F3" transform="translate(33,130)"/>
<path d="M0 0 C1.32 0.66 2.64 1.32 4 2 C1.38058783 3.74627478 -0.03824877 4.38722388 -3 5 C-3 4.01 -3 3.02 -3 2 C-2.01 1.34 -1.02 0.68 0 0 Z " fill="#F2F2F2" transform="translate(180,42)"/>
</svg>
